<svg width="200" height="200" viewBox="0 0 200 200" fill="none" xmlns="http://www.w3.org/2000/svg">
<circle cx="100" cy="100" r="98.5" stroke="#4F47E6" stroke-width="3"/>
<circle cx="100" cy="100" r="88.5" stroke="#4F47E6" stroke-width="3"/>
<mask id="path-3-outside-1_7_16" maskUnits="userSpaceOnUse" x="30" y="118" width="140" height="29" fill="black">
<rect fill="white" x="30" y="118" width="140" height="29"/>
<path d="M41.688 130.36C42.664 130.568 43.448 131.056 44.04 131.824C44.632 132.576 44.928 133.44 44.928 134.416C44.928 135.824 44.432 136.944 43.44 137.776C42.464 138.592 41.096 139 39.336 139H31.488V122.152H39.072C40.784 122.152 42.12 122.544 43.08 123.328C44.056 124.112 44.544 125.176 44.544 126.52C44.544 127.512 44.28 128.336 43.752 128.992C43.24 129.648 42.552 130.104 41.688 130.36ZM35.592 128.968H38.28C38.952 128.968 39.464 128.824 39.816 128.536C40.184 128.232 40.368 127.792 40.368 127.216C40.368 126.64 40.184 126.2 39.816 125.896C39.464 125.592 38.952 125.44 38.28 125.44H35.592V128.968ZM38.616 135.688C39.304 135.688 39.832 135.536 40.2 135.232C40.584 134.912 40.776 134.456 40.776 133.864C40.776 133.272 40.576 132.808 40.176 132.472C39.792 132.136 39.256 131.968 38.568 131.968H35.592V135.688H38.616ZM59.9323 132.088C59.9323 132.472 59.9083 132.872 59.8603 133.288H50.5723C50.6363 134.12 50.9003 134.76 51.3643 135.208C51.8443 135.64 52.4283 135.856 53.1163 135.856C54.1403 135.856 54.8523 135.424 55.2523 134.56H59.6203C59.3963 135.44 58.9883 136.232 58.3963 136.936C57.8203 137.64 57.0923 138.192 56.2123 138.592C55.3323 138.992 54.3483 139.192 53.2603 139.192C51.9483 139.192 50.7803 138.912 49.7563 138.352C48.7323 137.792 47.9323 136.992 47.3563 135.952C46.7803 134.912 46.4923 133.696 46.4923 132.304C46.4923 130.912 46.7723 129.696 47.3323 128.656C47.9083 127.616 48.7083 126.816 49.7323 126.256C50.7563 125.696 51.9323 125.416 53.2603 125.416C54.5563 125.416 55.7083 125.688 56.7163 126.232C57.7243 126.776 58.5083 127.552 59.0683 128.56C59.6443 129.568 59.9323 130.744 59.9323 132.088ZM55.7323 131.008C55.7323 130.304 55.4923 129.744 55.0123 129.328C54.5323 128.912 53.9323 128.704 53.2123 128.704C52.5243 128.704 51.9403 128.904 51.4603 129.304C50.9963 129.704 50.7083 130.272 50.5963 131.008H55.7323ZM66.2014 121.24V139H62.0974V121.24H66.2014ZM68.3595 132.28C68.3595 130.904 68.6155 129.696 69.1275 128.656C69.6555 127.616 70.3675 126.816 71.2635 126.256C72.1595 125.696 73.1595 125.416 74.2635 125.416C75.2075 125.416 76.0315 125.608 76.7355 125.992C77.4555 126.376 78.0075 126.88 78.3915 127.504V125.608H82.4955V139H78.3915V137.104C77.9915 137.728 77.4315 138.232 76.7115 138.616C76.0075 139 75.1835 139.192 74.2395 139.192C73.1515 139.192 72.1595 138.912 71.2635 138.352C70.3675 137.776 69.6555 136.968 69.1275 135.928C68.6155 134.872 68.3595 133.656 68.3595 132.28ZM78.3915 132.304C78.3915 131.28 78.1035 130.472 77.5275 129.88C76.9675 129.288 76.2795 128.992 75.4635 128.992C74.6475 128.992 73.9515 129.288 73.3755 129.88C72.8155 130.456 72.5355 131.256 72.5355 132.28C72.5355 133.304 72.8155 134.12 73.3755 134.728C73.9515 135.32 74.6475 135.616 75.4635 135.616C76.2795 135.616 76.9675 135.32 77.5275 134.728C78.1035 134.136 78.3915 133.328 78.3915 132.304ZM87.5046 124.216C86.7846 124.216 86.1926 124.008 85.7286 123.592C85.2806 123.16 85.0566 122.632 85.0566 122.008C85.0566 121.368 85.2806 120.84 85.7286 120.424C86.1926 119.992 86.7846 119.776 87.5046 119.776C88.2086 119.776 88.7846 119.992 89.2326 120.424C89.6966 120.84 89.9286 121.368 89.9286 122.008C89.9286 122.632 89.6966 123.16 89.2326 123.592C88.7846 124.008 88.2086 124.216 87.5046 124.216ZM89.5686 140.728C89.5686 142.376 89.1526 143.56 88.3206 144.28C87.4886 145.016 86.3286 145.384 84.8406 145.384H83.2326V141.904H84.2166C84.6646 141.904 84.9846 141.816 85.1766 141.64C85.3686 141.464 85.4646 141.176 85.4646 140.776V125.608H89.5686V140.728ZM91.7033 132.28C91.7033 130.904 91.9593 129.696 92.4713 128.656C92.9993 127.616 93.7113 126.816 94.6073 126.256C95.5033 125.696 96.5033 125.416 97.6073 125.416C98.5513 125.416 99.3753 125.608 100.079 125.992C100.799 126.376 101.351 126.88 101.735 127.504V125.608H105.839V139H101.735V137.104C101.335 137.728 100.775 138.232 100.055 138.616C99.3513 139 98.5273 139.192 97.5833 139.192C96.4953 139.192 95.5033 138.912 94.6073 138.352C93.7113 137.776 92.9993 136.968 92.4713 135.928C91.9593 134.872 91.7033 133.656 91.7033 132.28ZM101.735 132.304C101.735 131.28 101.447 130.472 100.871 129.88C100.311 129.288 99.6233 128.992 98.8073 128.992C97.9913 128.992 97.2953 129.288 96.7193 129.88C96.1593 130.456 95.8793 131.256 95.8793 132.28C95.8793 133.304 96.1593 134.12 96.7193 134.728C97.2953 135.32 97.9913 135.616 98.8073 135.616C99.6233 135.616 100.311 135.32 100.871 134.728C101.447 134.136 101.735 133.328 101.735 132.304ZM112.912 127.84C113.392 127.104 113.992 126.528 114.712 126.112C115.432 125.68 116.232 125.464 117.112 125.464V129.808H115.984C114.96 129.808 114.192 130.032 113.68 130.48C113.168 130.912 112.912 131.68 112.912 132.784V139H108.808V125.608H112.912V127.84ZM125.17 139.168C123.938 139.168 122.834 138.968 121.858 138.568C120.882 138.168 120.098 137.576 119.506 136.792C118.93 136.008 118.626 135.064 118.594 133.96H122.962C123.026 134.584 123.242 135.064 123.61 135.4C123.978 135.72 124.458 135.88 125.05 135.88C125.658 135.88 126.138 135.744 126.49 135.472C126.842 135.184 127.018 134.792 127.018 134.296C127.018 133.88 126.874 133.536 126.586 133.264C126.314 132.992 125.97 132.768 125.554 132.592C125.154 132.416 124.578 132.216 123.826 131.992C122.738 131.656 121.85 131.32 121.162 130.984C120.474 130.648 119.882 130.152 119.386 129.496C118.89 128.84 118.642 127.984 118.642 126.928C118.642 125.36 119.21 124.136 120.346 123.256C121.482 122.36 122.962 121.912 124.786 121.912C126.642 121.912 128.138 122.36 129.274 123.256C130.41 124.136 131.018 125.368 131.098 126.952H126.658C126.626 126.408 126.426 125.984 126.058 125.68C125.69 125.36 125.218 125.2 124.642 125.2C124.146 125.2 123.746 125.336 123.442 125.608C123.138 125.864 122.986 126.24 122.986 126.736C122.986 127.28 123.242 127.704 123.754 128.008C124.266 128.312 125.066 128.64 126.154 128.992C127.242 129.36 128.122 129.712 128.794 130.048C129.482 130.384 130.074 130.872 130.57 131.512C131.066 132.152 131.314 132.976 131.314 133.984C131.314 134.944 131.066 135.816 130.57 136.6C130.09 137.384 129.386 138.008 128.458 138.472C127.53 138.936 126.434 139.168 125.17 139.168ZM135.904 124.216C135.184 124.216 134.592 124.008 134.128 123.592C133.68 123.16 133.456 122.632 133.456 122.008C133.456 121.368 133.68 120.84 134.128 120.424C134.592 119.992 135.184 119.776 135.904 119.776C136.608 119.776 137.184 119.992 137.632 120.424C138.096 120.84 138.328 121.368 138.328 122.008C138.328 122.632 138.096 123.16 137.632 123.592C137.184 124.008 136.608 124.216 135.904 124.216ZM137.944 125.608V139H133.84V125.608H137.944ZM149.102 139L145.022 133.384V139H140.918V121.24H145.022V131.056L149.078 125.608H154.142L148.574 132.328L154.19 139H149.102ZM161.85 139.192C160.538 139.192 159.354 138.912 158.298 138.352C157.258 137.792 156.434 136.992 155.826 135.952C155.234 134.912 154.938 133.696 154.938 132.304C154.938 130.928 155.242 129.72 155.85 128.68C156.458 127.624 157.29 126.816 158.346 126.256C159.402 125.696 160.586 125.416 161.898 125.416C163.21 125.416 164.394 125.696 165.45 126.256C166.506 126.816 167.338 127.624 167.946 128.68C168.554 129.72 168.858 130.928 168.858 132.304C168.858 133.68 168.546 134.896 167.922 135.952C167.314 136.992 166.474 137.792 165.402 138.352C164.346 138.912 163.162 139.192 161.85 139.192ZM161.85 135.64C162.634 135.64 163.298 135.352 163.842 134.776C164.402 134.2 164.682 133.376 164.682 132.304C164.682 131.232 164.41 130.408 163.866 129.832C163.338 129.256 162.682 128.968 161.898 128.968C161.098 128.968 160.434 129.256 159.906 129.832C159.378 130.392 159.114 131.216 159.114 132.304C159.114 133.376 159.37 134.2 159.882 134.776C160.41 135.352 161.066 135.64 161.85 135.64Z"/>
</mask>
<path d="M41.688 130.36C42.664 130.568 43.448 131.056 44.04 131.824C44.632 132.576 44.928 133.44 44.928 134.416C44.928 135.824 44.432 136.944 43.44 137.776C42.464 138.592 41.096 139 39.336 139H31.488V122.152H39.072C40.784 122.152 42.12 122.544 43.08 123.328C44.056 124.112 44.544 125.176 44.544 126.52C44.544 127.512 44.28 128.336 43.752 128.992C43.24 129.648 42.552 130.104 41.688 130.36ZM35.592 128.968H38.28C38.952 128.968 39.464 128.824 39.816 128.536C40.184 128.232 40.368 127.792 40.368 127.216C40.368 126.64 40.184 126.2 39.816 125.896C39.464 125.592 38.952 125.44 38.28 125.44H35.592V128.968ZM38.616 135.688C39.304 135.688 39.832 135.536 40.2 135.232C40.584 134.912 40.776 134.456 40.776 133.864C40.776 133.272 40.576 132.808 40.176 132.472C39.792 132.136 39.256 131.968 38.568 131.968H35.592V135.688H38.616ZM59.9323 132.088C59.9323 132.472 59.9083 132.872 59.8603 133.288H50.5723C50.6363 134.12 50.9003 134.76 51.3643 135.208C51.8443 135.64 52.4283 135.856 53.1163 135.856C54.1403 135.856 54.8523 135.424 55.2523 134.56H59.6203C59.3963 135.44 58.9883 136.232 58.3963 136.936C57.8203 137.64 57.0923 138.192 56.2123 138.592C55.3323 138.992 54.3483 139.192 53.2603 139.192C51.9483 139.192 50.7803 138.912 49.7563 138.352C48.7323 137.792 47.9323 136.992 47.3563 135.952C46.7803 134.912 46.4923 133.696 46.4923 132.304C46.4923 130.912 46.7723 129.696 47.3323 128.656C47.9083 127.616 48.7083 126.816 49.7323 126.256C50.7563 125.696 51.9323 125.416 53.2603 125.416C54.5563 125.416 55.7083 125.688 56.7163 126.232C57.7243 126.776 58.5083 127.552 59.0683 128.56C59.6443 129.568 59.9323 130.744 59.9323 132.088ZM55.7323 131.008C55.7323 130.304 55.4923 129.744 55.0123 129.328C54.5323 128.912 53.9323 128.704 53.2123 128.704C52.5243 128.704 51.9403 128.904 51.4603 129.304C50.9963 129.704 50.7083 130.272 50.5963 131.008H55.7323ZM66.2014 121.24V139H62.0974V121.24H66.2014ZM68.3595 132.28C68.3595 130.904 68.6155 129.696 69.1275 128.656C69.6555 127.616 70.3675 126.816 71.2635 126.256C72.1595 125.696 73.1595 125.416 74.2635 125.416C75.2075 125.416 76.0315 125.608 76.7355 125.992C77.4555 126.376 78.0075 126.88 78.3915 127.504V125.608H82.4955V139H78.3915V137.104C77.9915 137.728 77.4315 138.232 76.7115 138.616C76.0075 139 75.1835 139.192 74.2395 139.192C73.1515 139.192 72.1595 138.912 71.2635 138.352C70.3675 137.776 69.6555 136.968 69.1275 135.928C68.6155 134.872 68.3595 133.656 68.3595 132.28ZM78.3915 132.304C78.3915 131.28 78.1035 130.472 77.5275 129.88C76.9675 129.288 76.2795 128.992 75.4635 128.992C74.6475 128.992 73.9515 129.288 73.3755 129.88C72.8155 130.456 72.5355 131.256 72.5355 132.28C72.5355 133.304 72.8155 134.12 73.3755 134.728C73.9515 135.32 74.6475 135.616 75.4635 135.616C76.2795 135.616 76.9675 135.32 77.5275 134.728C78.1035 134.136 78.3915 133.328 78.3915 132.304ZM87.5046 124.216C86.7846 124.216 86.1926 124.008 85.7286 123.592C85.2806 123.16 85.0566 122.632 85.0566 122.008C85.0566 121.368 85.2806 120.84 85.7286 120.424C86.1926 119.992 86.7846 119.776 87.5046 119.776C88.2086 119.776 88.7846 119.992 89.2326 120.424C89.6966 120.84 89.9286 121.368 89.9286 122.008C89.9286 122.632 89.6966 123.16 89.2326 123.592C88.7846 124.008 88.2086 124.216 87.5046 124.216ZM89.5686 140.728C89.5686 142.376 89.1526 143.56 88.3206 144.28C87.4886 145.016 86.3286 145.384 84.8406 145.384H83.2326V141.904H84.2166C84.6646 141.904 84.9846 141.816 85.1766 141.64C85.3686 141.464 85.4646 141.176 85.4646 140.776V125.608H89.5686V140.728ZM91.7033 132.28C91.7033 130.904 91.9593 129.696 92.4713 128.656C92.9993 127.616 93.7113 126.816 94.6073 126.256C95.5033 125.696 96.5033 125.416 97.6073 125.416C98.5513 125.416 99.3753 125.608 100.079 125.992C100.799 126.376 101.351 126.88 101.735 127.504V125.608H105.839V139H101.735V137.104C101.335 137.728 100.775 138.232 100.055 138.616C99.3513 139 98.5273 139.192 97.5833 139.192C96.4953 139.192 95.5033 138.912 94.6073 138.352C93.7113 137.776 92.9993 136.968 92.4713 135.928C91.9593 134.872 91.7033 133.656 91.7033 132.28ZM101.735 132.304C101.735 131.28 101.447 130.472 100.871 129.88C100.311 129.288 99.6233 128.992 98.8073 128.992C97.9913 128.992 97.2953 129.288 96.7193 129.88C96.1593 130.456 95.8793 131.256 95.8793 132.28C95.8793 133.304 96.1593 134.12 96.7193 134.728C97.2953 135.32 97.9913 135.616 98.8073 135.616C99.6233 135.616 100.311 135.32 100.871 134.728C101.447 134.136 101.735 133.328 101.735 132.304ZM112.912 127.84C113.392 127.104 113.992 126.528 114.712 126.112C115.432 125.68 116.232 125.464 117.112 125.464V129.808H115.984C114.96 129.808 114.192 130.032 113.68 130.48C113.168 130.912 112.912 131.68 112.912 132.784V139H108.808V125.608H112.912V127.84ZM125.17 139.168C123.938 139.168 122.834 138.968 121.858 138.568C120.882 138.168 120.098 137.576 119.506 136.792C118.93 136.008 118.626 135.064 118.594 133.96H122.962C123.026 134.584 123.242 135.064 123.61 135.4C123.978 135.72 124.458 135.88 125.05 135.88C125.658 135.88 126.138 135.744 126.49 135.472C126.842 135.184 127.018 134.792 127.018 134.296C127.018 133.88 126.874 133.536 126.586 133.264C126.314 132.992 125.97 132.768 125.554 132.592C125.154 132.416 124.578 132.216 123.826 131.992C122.738 131.656 121.85 131.32 121.162 130.984C120.474 130.648 119.882 130.152 119.386 129.496C118.89 128.84 118.642 127.984 118.642 126.928C118.642 125.36 119.21 124.136 120.346 123.256C121.482 122.36 122.962 121.912 124.786 121.912C126.642 121.912 128.138 122.36 129.274 123.256C130.41 124.136 131.018 125.368 131.098 126.952H126.658C126.626 126.408 126.426 125.984 126.058 125.68C125.69 125.36 125.218 125.2 124.642 125.2C124.146 125.2 123.746 125.336 123.442 125.608C123.138 125.864 122.986 126.24 122.986 126.736C122.986 127.28 123.242 127.704 123.754 128.008C124.266 128.312 125.066 128.64 126.154 128.992C127.242 129.36 128.122 129.712 128.794 130.048C129.482 130.384 130.074 130.872 130.57 131.512C131.066 132.152 131.314 132.976 131.314 133.984C131.314 134.944 131.066 135.816 130.57 136.6C130.09 137.384 129.386 138.008 128.458 138.472C127.53 138.936 126.434 139.168 125.17 139.168ZM135.904 124.216C135.184 124.216 134.592 124.008 134.128 123.592C133.68 123.16 133.456 122.632 133.456 122.008C133.456 121.368 133.68 120.84 134.128 120.424C134.592 119.992 135.184 119.776 135.904 119.776C136.608 119.776 137.184 119.992 137.632 120.424C138.096 120.84 138.328 121.368 138.328 122.008C138.328 122.632 138.096 123.16 137.632 123.592C137.184 124.008 136.608 124.216 135.904 124.216ZM137.944 125.608V139H133.84V125.608H137.944ZM149.102 139L145.022 133.384V139H140.918V121.24H145.022V131.056L149.078 125.608H154.142L148.574 132.328L154.19 139H149.102ZM161.85 139.192C160.538 139.192 159.354 138.912 158.298 138.352C157.258 137.792 156.434 136.992 155.826 135.952C155.234 134.912 154.938 133.696 154.938 132.304C154.938 130.928 155.242 129.72 155.85 128.68C156.458 127.624 157.29 126.816 158.346 126.256C159.402 125.696 160.586 125.416 161.898 125.416C163.21 125.416 164.394 125.696 165.45 126.256C166.506 126.816 167.338 127.624 167.946 128.68C168.554 129.72 168.858 130.928 168.858 132.304C168.858 133.68 168.546 134.896 167.922 135.952C167.314 136.992 166.474 137.792 165.402 138.352C164.346 138.912 163.162 139.192 161.85 139.192ZM161.85 135.64C162.634 135.64 163.298 135.352 163.842 134.776C164.402 134.2 164.682 133.376 164.682 132.304C164.682 131.232 164.41 130.408 163.866 129.832C163.338 129.256 162.682 128.968 161.898 128.968C161.098 128.968 160.434 129.256 159.906 129.832C159.378 130.392 159.114 131.216 159.114 132.304C159.114 133.376 159.37 134.2 159.882 134.776C160.41 135.352 161.066 135.64 161.85 135.64Z" fill="#4F47E6"/>
<path d="M41.688 130.36L41.4039 129.401L41.4796 131.338L41.688 130.36ZM44.04 131.824L43.2479 132.435L43.2543 132.443L44.04 131.824ZM43.44 137.776L44.0814 138.543L44.0826 138.542L43.44 137.776ZM31.488 139H30.488V140H31.488V139ZM31.488 122.152V121.152H30.488V122.152H31.488ZM43.08 123.328L42.4474 124.103L42.4537 124.108L43.08 123.328ZM43.752 128.992L42.973 128.365L42.9683 128.371L42.9637 128.377L43.752 128.992ZM35.592 128.968H34.592V129.968H35.592V128.968ZM39.816 128.536L40.4492 129.31L40.4529 129.307L39.816 128.536ZM39.816 125.896L39.1624 126.653L39.1707 126.66L39.1791 126.667L39.816 125.896ZM35.592 125.44V124.44H34.592V125.44H35.592ZM40.2 135.232L40.8369 136.003L40.8402 136L40.2 135.232ZM40.176 132.472L39.5175 133.225L39.5251 133.231L39.5328 133.238L40.176 132.472ZM35.592 131.968V130.968H34.592V131.968H35.592ZM35.592 135.688H34.592V136.688H35.592V135.688ZM41.688 130.36L41.4796 131.338C42.231 131.498 42.8053 131.86 43.248 132.435L44.04 131.824L44.832 131.213C44.0907 130.252 43.097 129.638 41.8964 129.382L41.688 130.36ZM44.04 131.824L43.2543 132.443C43.7045 133.015 43.928 133.66 43.928 134.416H44.928H45.928C45.928 133.22 45.5595 132.137 44.8257 131.205L44.04 131.824ZM44.928 134.416H43.928C43.928 135.558 43.5413 136.386 42.7974 137.01L43.44 137.776L44.0826 138.542C45.3227 137.502 45.928 136.09 45.928 134.416H44.928ZM43.44 137.776L42.7986 137.009C42.0608 137.626 40.9508 138 39.336 138V139V140C41.2412 140 42.8672 139.558 44.0814 138.543L43.44 137.776ZM39.336 139V138H31.488V139V140H39.336V139ZM31.488 139H32.488V122.152H31.488H30.488V139H31.488ZM31.488 122.152V123.152H39.072V122.152V121.152H31.488V122.152ZM39.072 122.152V123.152C40.6406 123.152 41.7235 123.511 42.4475 124.103L43.08 123.328L43.7125 122.553C42.5165 121.577 40.9274 121.152 39.072 121.152V122.152ZM43.08 123.328L42.4537 124.108C43.1742 124.686 43.544 125.453 43.544 126.52H44.544H45.544C45.544 124.899 44.9378 123.538 43.7063 122.548L43.08 123.328ZM44.544 126.52H43.544C43.544 127.326 43.3335 127.917 42.973 128.365L43.752 128.992L44.531 129.619C45.2265 128.755 45.544 127.698 45.544 126.52H44.544ZM43.752 128.992L42.9637 128.377C42.5906 128.855 42.0856 129.199 41.4039 129.401L41.688 130.36L41.9721 131.319C43.0184 131.009 43.8894 130.441 44.5403 129.607L43.752 128.992ZM35.592 128.968V129.968H38.28V128.968V127.968H35.592V128.968ZM38.28 128.968V129.968C39.0763 129.968 39.8506 129.8 40.4492 129.31L39.816 128.536L39.1828 127.762C39.0774 127.848 38.8277 127.968 38.28 127.968V128.968ZM39.816 128.536L40.4529 129.307C41.0986 128.774 41.368 128.022 41.368 127.216H40.368H39.368C39.368 127.562 39.2694 127.69 39.1791 127.765L39.816 128.536ZM40.368 127.216H41.368C41.368 126.41 41.0986 125.658 40.4529 125.125L39.816 125.896L39.1791 126.667C39.2694 126.742 39.368 126.87 39.368 127.216H40.368ZM39.816 125.896L40.4696 125.139C39.8699 124.621 39.0872 124.44 38.28 124.44V125.44V126.44C38.8168 126.44 39.0581 126.563 39.1624 126.653L39.816 125.896ZM38.28 125.44V124.44H35.592V125.44V126.44H38.28V125.44ZM35.592 125.44H34.592V128.968H35.592H36.592V125.44H35.592ZM38.616 135.688V136.688C39.4362 136.688 40.2252 136.508 40.8369 136.003L40.2 135.232L39.5631 134.461C39.4388 134.564 39.1718 134.688 38.616 134.688V135.688ZM40.2 135.232L40.8402 136C41.495 135.455 41.776 134.692 41.776 133.864H40.776H39.776C39.776 134.22 39.673 134.369 39.5598 134.464L40.2 135.232ZM40.776 133.864H41.776C41.776 133.021 41.4771 132.259 40.8192 131.706L40.176 132.472L39.5328 133.238C39.6749 133.357 39.776 133.523 39.776 133.864H40.776ZM40.176 132.472L40.8345 131.719C40.213 131.176 39.4131 130.968 38.568 130.968V131.968V132.968C39.0989 132.968 39.371 133.096 39.5175 133.225L40.176 132.472ZM38.568 131.968V130.968H35.592V131.968V132.968H38.568V131.968ZM35.592 131.968H34.592V135.688H35.592H36.592V131.968H35.592ZM35.592 135.688V136.688H38.616V135.688V134.688H35.592V135.688ZM59.8603 133.288V134.288H60.7516L60.8537 133.403L59.8603 133.288ZM50.5723 133.288V132.288H49.4924L49.5753 133.365L50.5723 133.288ZM51.3643 135.208L50.6697 135.927L50.6823 135.94L50.6953 135.951L51.3643 135.208ZM55.2523 134.56V133.56H54.6133L54.3448 134.14L55.2523 134.56ZM59.6203 134.56L60.5894 134.807L60.9067 133.56H59.6203V134.56ZM58.3963 136.936L57.6309 136.292L57.6224 136.303L58.3963 136.936ZM56.2123 138.592L56.6261 139.502L56.2123 138.592ZM49.7563 138.352L49.2765 139.229L49.2765 139.229L49.7563 138.352ZM47.3563 135.952L48.2311 135.468L48.2311 135.468L47.3563 135.952ZM47.3323 128.656L46.4575 128.171L46.4518 128.182L47.3323 128.656ZM49.7323 126.256L50.2121 127.133L50.2121 127.133L49.7323 126.256ZM56.7163 126.232L56.2414 127.112L56.2414 127.112L56.7163 126.232ZM59.0683 128.56L58.1941 129.046L58.2001 129.056L59.0683 128.56ZM55.7323 131.008V132.008H56.7323V131.008H55.7323ZM55.0123 129.328L55.6672 128.572L55.6672 128.572L55.0123 129.328ZM51.4603 129.304L50.8201 128.536L50.8137 128.541L50.8074 128.547L51.4603 129.304ZM50.5963 131.008L49.6077 130.858L49.4326 132.008H50.5963V131.008ZM59.9323 132.088H58.9323C58.9323 132.43 58.9109 132.792 58.8669 133.173L59.8603 133.288L60.8537 133.403C60.9057 132.952 60.9323 132.514 60.9323 132.088H59.9323ZM59.8603 133.288V132.288H50.5723V133.288V134.288H59.8603V133.288ZM50.5723 133.288L49.5753 133.365C49.6524 134.367 49.983 135.264 50.6697 135.927L51.3643 135.208L52.0589 134.489C51.8177 134.256 51.6203 133.873 51.5694 133.211L50.5723 133.288ZM51.3643 135.208L50.6953 135.951C51.3717 136.56 52.1989 136.856 53.1163 136.856V135.856V134.856C52.6577 134.856 52.317 134.72 52.0333 134.465L51.3643 135.208ZM53.1163 135.856V136.856C53.7693 136.856 54.3923 136.717 54.937 136.387C55.4864 136.054 55.8886 135.566 56.1598 134.98L55.2523 134.56L54.3448 134.14C54.216 134.418 54.0622 134.578 53.8996 134.677C53.7323 134.779 53.4873 134.856 53.1163 134.856V135.856ZM55.2523 134.56V135.56H59.6203V134.56V133.56H55.2523V134.56ZM59.6203 134.56L58.6512 134.313C58.4649 135.045 58.1273 135.702 57.631 136.292L58.3963 136.936L59.1617 137.58C59.8493 136.762 60.3278 135.835 60.5894 134.807L59.6203 134.56ZM58.3963 136.936L57.6224 136.303C57.1496 136.881 56.5478 137.341 55.7985 137.682L56.2123 138.592L56.6261 139.502C57.6369 139.043 58.491 138.399 59.1703 137.569L58.3963 136.936ZM56.2123 138.592L55.7985 137.682C55.0639 138.016 54.2235 138.192 53.2603 138.192V139.192V140.192C54.4731 140.192 55.6007 139.968 56.6261 139.502L56.2123 138.592ZM53.2603 139.192V138.192C52.0948 138.192 51.0955 137.945 50.2361 137.475L49.7563 138.352L49.2765 139.229C50.4651 139.879 51.8018 140.192 53.2603 140.192V139.192ZM49.7563 138.352L50.2361 137.475C49.3816 137.007 48.7171 136.345 48.2311 135.468L47.3563 135.952L46.4815 136.436C47.1475 137.639 48.083 138.577 49.2765 139.229L49.7563 138.352ZM47.3563 135.952L48.2311 135.468C47.7503 134.599 47.4923 133.556 47.4923 132.304H46.4923H45.4923C45.4923 133.836 45.8104 135.225 46.4815 136.436L47.3563 135.952ZM46.4923 132.304H47.4923C47.4923 131.048 47.7442 130 48.2128 129.13L47.3323 128.656L46.4518 128.182C45.8005 129.392 45.4923 130.776 45.4923 132.304H46.4923ZM47.3323 128.656L48.2071 129.14C48.6931 128.263 49.3576 127.601 50.2121 127.133L49.7323 126.256L49.2525 125.379C48.059 126.031 47.1235 126.969 46.4575 128.171L47.3323 128.656ZM49.7323 126.256L50.2121 127.133C51.0697 126.664 52.0766 126.416 53.2603 126.416V125.416V124.416C51.788 124.416 50.4429 124.728 49.2525 125.379L49.7323 126.256ZM53.2603 125.416V126.416C54.4126 126.416 55.3976 126.657 56.2414 127.112L56.7163 126.232L57.1912 125.352C56.0191 124.719 54.7 124.416 53.2603 124.416V125.416ZM56.7163 126.232L56.2414 127.112C57.0802 127.565 57.7262 128.203 58.1942 129.046L59.0683 128.56L59.9425 128.074C59.2904 126.901 58.3684 125.987 57.1912 125.352L56.7163 126.232ZM59.0683 128.56L58.2001 129.056C58.6769 129.891 58.9323 130.89 58.9323 132.088H59.9323H60.9323C60.9323 130.598 60.6117 129.245 59.9366 128.064L59.0683 128.56ZM55.7323 131.008H56.7323C56.7323 130.049 56.3917 129.2 55.6672 128.572L55.0123 129.328L54.3574 130.084C54.5929 130.288 54.7323 130.559 54.7323 131.008H55.7323ZM55.0123 129.328L55.6672 128.572C54.9811 127.978 54.1386 127.704 53.2123 127.704V128.704V129.704C53.726 129.704 54.0835 129.846 54.3574 130.084L55.0123 129.328ZM53.2123 128.704V127.704C52.3157 127.704 51.4984 127.971 50.8201 128.536L51.4603 129.304L52.1005 130.072C52.3823 129.837 52.733 129.704 53.2123 129.704V128.704ZM51.4603 129.304L50.8074 128.547C50.1259 129.134 49.7475 129.939 49.6077 130.858L50.5963 131.008L51.5849 131.158C51.6691 130.605 51.8668 130.274 52.1133 130.061L51.4603 129.304ZM50.5963 131.008V132.008H55.7323V131.008V130.008H50.5963V131.008ZM66.2014 121.24H67.2014V120.24H66.2014V121.24ZM66.2014 139V140H67.2014V139H66.2014ZM62.0974 139H61.0974V140H62.0974V139ZM62.0974 121.24V120.24H61.0974V121.24H62.0974ZM66.2014 121.24H65.2014V139H66.2014H67.2014V121.24H66.2014ZM66.2014 139V138H62.0974V139V140H66.2014V139ZM62.0974 139H63.0974V121.24H62.0974H61.0974V139H62.0974ZM62.0974 121.24V122.24H66.2014V121.24V120.24H62.0974V121.24ZM69.1275 128.656L68.2358 128.203L68.2303 128.214L69.1275 128.656ZM71.2635 126.256L71.7935 127.104L71.7935 127.104L71.2635 126.256ZM76.7355 125.992L76.2566 126.87L76.2649 126.874L76.7355 125.992ZM78.3915 127.504L77.5398 128.028L79.3915 131.037V127.504H78.3915ZM78.3915 125.608V124.608H77.3915V125.608H78.3915ZM82.4955 125.608H83.4955V124.608H82.4955V125.608ZM82.4955 139V140H83.4955V139H82.4955ZM78.3915 139H77.3915V140H78.3915V139ZM78.3915 137.104H79.3915V133.691L77.5496 136.564L78.3915 137.104ZM76.7115 138.616L76.2409 137.734L76.2326 137.738L76.7115 138.616ZM71.2635 138.352L70.7227 139.193L70.7335 139.2L71.2635 138.352ZM69.1275 135.928L68.2277 136.364L68.2317 136.373L68.2358 136.381L69.1275 135.928ZM77.5275 129.88L76.801 130.567L76.8108 130.577L77.5275 129.88ZM73.3755 129.88L72.6588 129.183L72.6585 129.183L73.3755 129.88ZM73.3755 134.728L72.64 135.405L72.6492 135.416L72.6588 135.425L73.3755 134.728ZM77.5275 134.728L76.8107 134.031L76.801 134.041L77.5275 134.728ZM68.3595 132.28H69.3595C69.3595 131.029 69.5918 129.977 70.0247 129.098L69.1275 128.656L68.2303 128.214C67.6392 129.415 67.3595 130.779 67.3595 132.28H68.3595ZM69.1275 128.656L70.0192 129.109C70.4736 128.214 71.0675 127.558 71.7935 127.104L71.2635 126.256L70.7335 125.408C69.6675 126.074 68.8374 127.018 68.2358 128.203L69.1275 128.656ZM71.2635 126.256L71.7935 127.104C72.5232 126.648 73.3381 126.416 74.2635 126.416V125.416V124.416C72.9809 124.416 71.7958 124.744 70.7335 125.408L71.2635 126.256ZM74.2635 125.416V126.416C75.0699 126.416 75.7236 126.579 76.2566 126.87L76.7355 125.992L77.2144 125.114C76.3394 124.637 75.3451 124.416 74.2635 124.416V125.416ZM76.7355 125.992L76.2649 126.874C76.8466 127.185 77.2591 127.572 77.5398 128.028L78.3915 127.504L79.2432 126.98C78.7559 126.188 78.0644 125.567 77.2061 125.11L76.7355 125.992ZM78.3915 127.504H79.3915V125.608H78.3915H77.3915V127.504H78.3915ZM78.3915 125.608V126.608H82.4955V125.608V124.608H78.3915V125.608ZM82.4955 125.608H81.4955V139H82.4955H83.4955V125.608H82.4955ZM82.4955 139V138H78.3915V139V140H82.4955V139ZM78.3915 139H79.3915V137.104H78.3915H77.3915V139H78.3915ZM78.3915 137.104L77.5496 136.564C77.2511 137.03 76.8255 137.422 76.2409 137.734L76.7115 138.616L77.1821 139.498C78.0375 139.042 78.7319 138.426 79.2334 137.644L78.3915 137.104ZM76.7115 138.616L76.2326 137.738C75.6996 138.029 75.0459 138.192 74.2395 138.192V139.192V140.192C75.3211 140.192 76.3154 139.971 77.1904 139.494L76.7115 138.616ZM74.2395 139.192V138.192C73.3331 138.192 72.5257 137.962 71.7935 137.504L71.2635 138.352L70.7335 139.2C71.7933 139.862 72.9699 140.192 74.2395 140.192V139.192ZM71.2635 138.352L71.8043 137.511C71.0716 137.04 70.4746 136.372 70.0192 135.475L69.1275 135.928L68.2358 136.381C68.8364 137.564 69.6634 138.512 70.7227 139.193L71.2635 138.352ZM69.1275 135.928L70.0273 135.492C69.5917 134.593 69.3595 133.531 69.3595 132.28H68.3595H67.3595C67.3595 133.781 67.6393 135.151 68.2277 136.364L69.1275 135.928ZM78.3915 132.304H79.3915C79.3915 131.085 79.0431 130.004 78.2442 129.183L77.5275 129.88L76.8108 130.577C77.1639 130.94 77.3915 131.475 77.3915 132.304H78.3915ZM77.5275 129.88L78.254 129.193C77.5048 128.401 76.5539 127.992 75.4635 127.992V128.992V129.992C76.0051 129.992 76.4302 130.175 76.801 130.567L77.5275 129.88ZM75.4635 128.992V127.992C74.3738 127.992 73.4204 128.4 72.6588 129.183L73.3755 129.88L74.0922 130.577C74.4826 130.176 74.9212 129.992 75.4635 129.992V128.992ZM73.3755 129.88L72.6585 129.183C71.8709 129.993 71.5355 131.07 71.5355 132.28H72.5355H73.5355C73.5355 131.442 73.7601 130.919 74.0925 130.577L73.3755 129.88ZM72.5355 132.28H71.5355C71.5355 133.492 71.8717 134.571 72.64 135.405L73.3755 134.728L74.111 134.051C73.7593 133.669 73.5355 133.116 73.5355 132.28H72.5355ZM73.3755 134.728L72.6588 135.425C73.4204 136.208 74.3738 136.616 75.4635 136.616V135.616V134.616C74.9212 134.616 74.4826 134.432 74.0922 134.031L73.3755 134.728ZM75.4635 135.616V136.616C76.5539 136.616 77.5048 136.207 78.254 135.415L77.5275 134.728L76.801 134.041C76.4302 134.433 76.0051 134.616 75.4635 134.616V135.616ZM77.5275 134.728L78.2442 135.425C79.0431 134.604 79.3915 133.523 79.3915 132.304H78.3915H77.3915C77.3915 133.133 77.1639 133.668 76.8108 134.031L77.5275 134.728ZM85.7286 123.592L85.0344 124.312L85.0475 124.324L85.061 124.337L85.7286 123.592ZM85.7286 120.424L86.409 121.157L86.41 121.156L85.7286 120.424ZM89.2326 120.424L88.5384 121.144L88.5515 121.156L88.565 121.169L89.2326 120.424ZM89.2326 123.592L89.913 124.325L89.914 124.324L89.2326 123.592ZM88.3206 144.28L87.6661 143.524L87.658 143.531L88.3206 144.28ZM83.2326 145.384H82.2326V146.384H83.2326V145.384ZM83.2326 141.904V140.904H82.2326V141.904H83.2326ZM85.1766 141.64L84.5008 140.903L84.5008 140.903L85.1766 141.64ZM85.4646 125.608V124.608H84.4646V125.608H85.4646ZM89.5686 125.608H90.5686V124.608H89.5686V125.608ZM87.5046 124.216V123.216C86.9902 123.216 86.6484 123.074 86.3961 122.847L85.7286 123.592L85.061 124.337C85.7367 124.942 86.579 125.216 87.5046 125.216V124.216ZM85.7286 123.592L86.4227 122.872C86.1707 122.629 86.0566 122.361 86.0566 122.008H85.0566H84.0566C84.0566 122.903 84.3904 123.691 85.0344 124.312L85.7286 123.592ZM85.0566 122.008H86.0566C86.0566 121.631 86.1753 121.374 86.409 121.157L85.7286 120.424L85.0481 119.691C84.3858 120.306 84.0566 121.105 84.0566 122.008H85.0566ZM85.7286 120.424L86.41 121.156C86.6635 120.92 87.0005 120.776 87.5046 120.776V119.776V118.776C86.5686 118.776 85.7216 119.064 85.0471 119.692L85.7286 120.424ZM87.5046 119.776V120.776C87.9864 120.776 88.3017 120.916 88.5384 121.144L89.2326 120.424L89.9267 119.704C89.2674 119.068 88.4307 118.776 87.5046 118.776V119.776ZM89.2326 120.424L88.565 121.169C88.811 121.389 88.9286 121.643 88.9286 122.008H89.9286H90.9286C90.9286 121.093 90.5821 120.291 89.9001 119.679L89.2326 120.424ZM89.9286 122.008H88.9286C88.9286 122.349 88.8157 122.614 88.5511 122.86L89.2326 123.592L89.914 124.324C90.5775 123.706 90.9286 122.915 90.9286 122.008H89.9286ZM89.2326 123.592L88.5521 122.859C88.3171 123.077 87.9971 123.216 87.5046 123.216V124.216V125.216C88.42 125.216 89.252 124.939 89.913 124.325L89.2326 123.592ZM89.5686 140.728H88.5686C88.5686 142.232 88.1881 143.072 87.6662 143.524L88.3206 144.28L88.9749 145.036C90.117 144.048 90.5686 142.52 90.5686 140.728H89.5686ZM88.3206 144.28L87.658 143.531C87.0632 144.057 86.1684 144.384 84.8406 144.384V145.384V146.384C86.4887 146.384 87.9139 145.975 88.9831 145.029L88.3206 144.28ZM84.8406 145.384V144.384H83.2326V145.384V146.384H84.8406V145.384ZM83.2326 145.384H84.2326V141.904H83.2326H82.2326V145.384H83.2326ZM83.2326 141.904V142.904H84.2166V141.904V140.904H83.2326V141.904ZM84.2166 141.904V142.904C84.7489 142.904 85.3821 142.808 85.8523 142.377L85.1766 141.64L84.5008 140.903C84.5494 140.858 84.5753 140.861 84.5274 140.874C84.4779 140.887 84.38 140.904 84.2166 140.904V141.904ZM85.1766 141.64L85.8523 142.377C86.3398 141.93 86.4646 141.307 86.4646 140.776H85.4646H84.4646C84.4646 140.901 84.449 140.96 84.4439 140.976C84.4418 140.982 84.4435 140.975 84.4529 140.96C84.4627 140.944 84.4784 140.923 84.5008 140.903L85.1766 141.64ZM85.4646 140.776H86.4646V125.608H85.4646H84.4646V140.776H85.4646ZM85.4646 125.608V126.608H89.5686V125.608V124.608H85.4646V125.608ZM89.5686 125.608H88.5686V140.728H89.5686H90.5686V125.608H89.5686ZM92.4713 128.656L91.5795 128.203L91.5741 128.214L92.4713 128.656ZM94.6073 126.256L95.1372 127.104L95.1372 127.104L94.6073 126.256ZM100.079 125.992L99.6004 126.87L99.6087 126.874L100.079 125.992ZM101.735 127.504L100.884 128.028L102.735 131.037V127.504H101.735ZM101.735 125.608V124.608H100.735V125.608H101.735ZM105.839 125.608H106.839V124.608H105.839V125.608ZM105.839 139V140H106.839V139H105.839ZM101.735 139H100.735V140H101.735V139ZM101.735 137.104H102.735V133.691L100.893 136.564L101.735 137.104ZM100.055 138.616L99.5846 137.734L99.5764 137.738L100.055 138.616ZM94.6073 138.352L94.0664 139.193L94.0773 139.2L94.6073 138.352ZM92.4713 135.928L91.5714 136.364L91.5754 136.373L91.5796 136.381L92.4713 135.928ZM100.871 129.88L100.145 130.567L100.155 130.577L100.871 129.88ZM96.7193 129.88L96.0025 129.183L96.0023 129.183L96.7193 129.88ZM96.7193 134.728L95.9837 135.405L95.993 135.416L96.0025 135.425L96.7193 134.728ZM100.871 134.728L100.154 134.031L100.145 134.041L100.871 134.728ZM91.7033 132.28H92.7033C92.7033 131.029 92.9356 129.977 93.3684 129.098L92.4713 128.656L91.5741 128.214C90.9829 129.415 90.7033 130.779 90.7033 132.28H91.7033ZM92.4713 128.656L93.3629 129.109C93.8174 128.214 94.4112 127.558 95.1372 127.104L94.6073 126.256L94.0773 125.408C93.0113 126.074 92.1811 127.018 91.5796 128.203L92.4713 128.656ZM94.6073 126.256L95.1372 127.104C95.867 126.648 96.6818 126.416 97.6073 126.416V125.416V124.416C96.3247 124.416 95.1395 124.744 94.0773 125.408L94.6073 126.256ZM97.6073 125.416V126.416C98.4136 126.416 99.0673 126.579 99.6004 126.87L100.079 125.992L100.558 125.114C99.6832 124.637 98.6889 124.416 97.6073 124.416V125.416ZM100.079 125.992L99.6087 126.874C100.19 127.185 100.603 127.572 100.884 128.028L101.735 127.504L102.587 126.98C102.1 126.188 101.408 125.567 100.55 125.11L100.079 125.992ZM101.735 127.504H102.735V125.608H101.735H100.735V127.504H101.735ZM101.735 125.608V126.608H105.839V125.608V124.608H101.735V125.608ZM105.839 125.608H104.839V139H105.839H106.839V125.608H105.839ZM105.839 139V138H101.735V139V140H105.839V139ZM101.735 139H102.735V137.104H101.735H100.735V139H101.735ZM101.735 137.104L100.893 136.564C100.595 137.03 100.169 137.422 99.5847 137.734L100.055 138.616L100.526 139.498C101.381 139.042 102.076 138.426 102.577 137.644L101.735 137.104ZM100.055 138.616L99.5764 137.738C99.0433 138.029 98.3896 138.192 97.5833 138.192V139.192V140.192C98.6649 140.192 99.6592 139.971 100.534 139.494L100.055 138.616ZM97.5833 139.192V138.192C96.6768 138.192 95.8694 137.962 95.1372 137.504L94.6073 138.352L94.0773 139.2C95.1371 139.862 96.3137 140.192 97.5833 140.192V139.192ZM94.6073 138.352L95.148 137.511C94.4154 137.04 93.8184 136.372 93.3629 135.475L92.4713 135.928L91.5796 136.381C92.1801 137.564 93.0071 138.512 94.0665 139.193L94.6073 138.352ZM92.4713 135.928L93.3711 135.492C92.9354 134.593 92.7033 133.531 92.7033 132.28H91.7033H90.7033C90.7033 133.781 90.9831 135.151 91.5714 136.364L92.4713 135.928ZM101.735 132.304H102.735C102.735 131.085 102.387 130.004 101.588 129.183L100.871 129.88L100.155 130.577C100.508 130.94 100.735 131.475 100.735 132.304H101.735ZM100.871 129.88L101.598 129.193C100.849 128.401 99.8977 127.992 98.8073 127.992V128.992V129.992C99.3488 129.992 99.774 130.175 100.145 130.567L100.871 129.88ZM98.8073 128.992V127.992C97.7176 127.992 96.7642 128.4 96.0025 129.183L96.7193 129.88L97.436 130.577C97.8263 130.176 98.2649 129.992 98.8073 129.992V128.992ZM96.7193 129.88L96.0023 129.183C95.2146 129.993 94.8793 131.07 94.8793 132.28H95.8793H96.8793C96.8793 131.442 97.1039 130.919 97.4362 130.577L96.7193 129.88ZM95.8793 132.28H94.8793C94.8793 133.492 95.2155 134.571 95.9837 135.405L96.7193 134.728L97.4548 134.051C97.103 133.669 96.8793 133.116 96.8793 132.28H95.8793ZM96.7193 134.728L96.0025 135.425C96.7642 136.208 97.7176 136.616 98.8073 136.616V135.616V134.616C98.2649 134.616 97.8263 134.432 97.436 134.031L96.7193 134.728ZM98.8073 135.616V136.616C99.8977 136.616 100.849 136.207 101.598 135.415L100.871 134.728L100.145 134.041C99.774 134.433 99.3488 134.616 98.8073 134.616V135.616ZM100.871 134.728L101.588 135.425C102.387 134.604 102.735 133.523 102.735 132.304H101.735H100.735C100.735 133.133 100.508 133.668 100.155 134.031L100.871 134.728ZM112.912 127.84H111.912V131.204L113.75 128.386L112.912 127.84ZM114.712 126.112L115.213 126.978L115.22 126.974L115.227 126.969L114.712 126.112ZM117.112 125.464H118.112V124.464H117.112V125.464ZM117.112 129.808V130.808H118.112V129.808H117.112ZM113.68 130.48L114.325 131.244L114.332 131.238L114.339 131.233L113.68 130.48ZM112.912 139V140H113.912V139H112.912ZM108.808 139H107.808V140H108.808V139ZM108.808 125.608V124.608H107.808V125.608H108.808ZM112.912 125.608H113.912V124.608H112.912V125.608ZM112.912 127.84L113.75 128.386C114.149 127.774 114.636 127.311 115.213 126.978L114.712 126.112L114.212 125.246C113.348 125.745 112.635 126.434 112.075 127.294L112.912 127.84ZM114.712 126.112L115.227 126.969C115.784 126.635 116.404 126.464 117.112 126.464V125.464V124.464C116.06 124.464 115.081 124.725 114.198 125.255L114.712 126.112ZM117.112 125.464H116.112V129.808H117.112H118.112V125.464H117.112ZM117.112 129.808V128.808H115.984V129.808V130.808H117.112V129.808ZM115.984 129.808V128.808C114.837 128.808 113.789 129.056 113.022 129.727L113.68 130.48L114.339 131.233C114.596 131.008 115.084 130.808 115.984 130.808V129.808ZM113.68 130.48L113.035 129.716C112.187 130.432 111.912 131.572 111.912 132.784H112.912H113.912C113.912 131.788 114.15 131.392 114.325 131.244L113.68 130.48ZM112.912 132.784H111.912V139H112.912H113.912V132.784H112.912ZM112.912 139V138H108.808V139V140H112.912V139ZM108.808 139H109.808V125.608H108.808H107.808V139H108.808ZM108.808 125.608V126.608H112.912V125.608V124.608H108.808V125.608ZM112.912 125.608H111.912V127.84H112.912H113.912V125.608H112.912ZM121.858 138.568L121.479 139.493L121.479 139.493L121.858 138.568ZM119.506 136.792L118.7 137.384L118.708 137.395L119.506 136.792ZM118.594 133.96V132.96H117.565L117.594 133.989L118.594 133.96ZM122.962 133.96L123.957 133.858L123.865 132.96H122.962V133.96ZM123.61 135.4L122.936 136.138L122.945 136.147L122.954 136.155L123.61 135.4ZM126.49 135.472L127.101 136.263L127.112 136.255L127.123 136.246L126.49 135.472ZM126.586 133.264L125.879 133.971L125.889 133.981L125.899 133.991L126.586 133.264ZM125.554 132.592L125.151 133.507L125.158 133.51L125.164 133.513L125.554 132.592ZM123.826 131.992L123.531 132.948L123.54 132.95L123.826 131.992ZM119.386 129.496L120.184 128.893L120.184 128.893L119.386 129.496ZM120.346 123.256L120.958 124.047L120.965 124.041L120.346 123.256ZM129.274 123.256L128.655 124.041L128.662 124.047L129.274 123.256ZM131.098 126.952V127.952H132.15L132.097 126.902L131.098 126.952ZM126.658 126.952L125.66 127.011L125.715 127.952H126.658V126.952ZM126.058 125.68L125.402 126.435L125.411 126.443L125.421 126.451L126.058 125.68ZM123.442 125.608L124.086 126.373L124.098 126.363L124.109 126.353L123.442 125.608ZM123.754 128.008L124.264 127.148L124.264 127.148L123.754 128.008ZM126.154 128.992L126.474 128.045L126.462 128.041L126.154 128.992ZM128.794 130.048L128.347 130.942L128.355 130.947L128.794 130.048ZM130.57 131.512L129.78 132.125L129.78 132.125L130.57 131.512ZM130.57 136.6L129.725 136.065L129.721 136.072L129.717 136.078L130.57 136.6ZM128.458 138.472L128.011 137.578L128.011 137.578L128.458 138.472ZM125.17 139.168V138.168C124.046 138.168 123.074 137.986 122.237 137.643L121.858 138.568L121.479 139.493C122.594 139.95 123.829 140.168 125.17 140.168V139.168ZM121.858 138.568L122.237 137.643C121.415 137.306 120.78 136.82 120.304 136.189L119.506 136.792L118.708 137.395C119.416 138.332 120.349 139.03 121.479 139.493L121.858 138.568ZM119.506 136.792L120.312 136.2C119.872 135.601 119.62 134.86 119.594 133.931L118.594 133.96L117.594 133.989C117.631 135.268 117.988 136.415 118.7 137.384L119.506 136.792ZM118.594 133.96V134.96H122.962V133.96V132.96H118.594V133.96ZM122.962 133.96L121.967 134.062C122.049 134.865 122.343 135.597 122.936 136.138L123.61 135.4L124.284 134.662C124.141 134.531 124.002 134.303 123.957 133.858L122.962 133.96ZM123.61 135.4L122.954 136.155C123.541 136.665 124.271 136.88 125.05 136.88V135.88V134.88C124.645 134.88 124.415 134.775 124.266 134.645L123.61 135.4ZM125.05 135.88V136.88C125.799 136.88 126.52 136.713 127.101 136.263L126.49 135.472L125.878 134.681C125.756 134.775 125.517 134.88 125.05 134.88V135.88ZM126.49 135.472L127.123 136.246C127.73 135.749 128.018 135.061 128.018 134.296H127.018H126.018C126.018 134.523 125.954 134.619 125.857 134.698L126.49 135.472ZM127.018 134.296H128.018C128.018 133.62 127.772 133.008 127.273 132.537L126.586 133.264L125.899 133.991C125.976 134.064 126.018 134.14 126.018 134.296H127.018ZM126.586 133.264L127.293 132.557C126.916 132.179 126.458 131.889 125.944 131.671L125.554 132.592L125.164 133.513C125.482 133.647 125.712 133.805 125.879 133.971L126.586 133.264ZM125.554 132.592L125.957 131.677C125.5 131.476 124.877 131.262 124.111 131.034L123.826 131.992L123.54 132.95C124.279 133.17 124.808 133.356 125.151 133.507L125.554 132.592ZM123.826 131.992L124.121 131.037C123.061 130.709 122.226 130.391 121.601 130.085L121.162 130.984L120.723 131.883C121.474 132.249 122.415 132.603 123.531 132.947L123.826 131.992ZM121.162 130.984L121.601 130.085C121.064 129.823 120.592 129.433 120.184 128.893L119.386 129.496L118.588 130.099C119.172 130.871 119.884 131.473 120.723 131.883L121.162 130.984ZM119.386 129.496L120.184 128.893C119.852 128.454 119.642 127.829 119.642 126.928H118.642H117.642C117.642 128.139 117.928 129.226 118.588 130.099L119.386 129.496ZM118.642 126.928H119.642C119.642 125.637 120.091 124.718 120.958 124.047L120.346 123.256L119.734 122.465C118.328 123.554 117.642 125.083 117.642 126.928H118.642ZM120.346 123.256L120.965 124.041C121.883 123.317 123.127 122.912 124.786 122.912V121.912V120.912C122.797 120.912 121.081 121.403 119.727 122.471L120.346 123.256ZM124.786 121.912V122.912C126.482 122.912 127.74 123.32 128.655 124.041L129.274 123.256L129.893 122.471C128.536 121.4 126.802 120.912 124.786 120.912V121.912ZM129.274 123.256L128.662 124.047C129.541 124.728 130.032 125.676 130.099 127.002L131.098 126.952L132.097 126.902C132.004 125.06 131.278 123.544 129.886 122.465L129.274 123.256ZM131.098 126.952V125.952H126.658V126.952V127.952H131.098V126.952ZM126.658 126.952L127.656 126.893C127.61 126.115 127.308 125.416 126.695 124.909L126.058 125.68L125.421 126.451C125.544 126.552 125.641 126.701 125.66 127.011L126.658 126.952ZM126.058 125.68L126.714 124.925C126.132 124.419 125.413 124.2 124.642 124.2V125.2V126.2C125.023 126.2 125.248 126.301 125.402 126.435L126.058 125.68ZM124.642 125.2V124.2C123.956 124.2 123.3 124.393 122.775 124.863L123.442 125.608L124.109 126.353C124.192 126.279 124.336 126.2 124.642 126.2V125.2ZM123.442 125.608L122.798 124.843C122.214 125.335 121.986 126.025 121.986 126.736H122.986H123.986C123.986 126.455 124.062 126.393 124.086 126.373L123.442 125.608ZM122.986 126.736H121.986C121.986 127.671 122.463 128.404 123.243 128.868L123.754 128.008L124.264 127.148C124.021 127.004 123.986 126.889 123.986 126.736H122.986ZM123.754 128.008L123.243 128.868C123.854 129.23 124.739 129.585 125.846 129.943L126.154 128.992L126.462 128.041C125.392 127.695 124.678 127.394 124.264 127.148L123.754 128.008ZM126.154 128.992L125.834 129.939C126.898 130.299 127.731 130.635 128.347 130.942L128.794 130.048L129.241 129.154C128.513 128.789 127.586 128.421 126.474 128.045L126.154 128.992ZM128.794 130.048L128.355 130.947C128.898 131.212 129.372 131.598 129.78 132.125L130.57 131.512L131.36 130.899C130.776 130.146 130.066 129.556 129.233 129.149L128.794 130.048ZM130.57 131.512L129.78 132.125C130.109 132.55 130.314 133.142 130.314 133.984H131.314H132.314C132.314 132.81 132.023 131.754 131.36 130.899L130.57 131.512ZM131.314 133.984H130.314C130.314 134.762 130.116 135.447 129.725 136.065L130.57 136.6L131.415 137.135C132.016 136.185 132.314 135.126 132.314 133.984H131.314ZM130.57 136.6L129.717 136.078C129.347 136.682 128.793 137.186 128.011 137.578L128.458 138.472L128.905 139.366C129.978 138.83 130.833 138.086 131.423 137.122L130.57 136.6ZM128.458 138.472L128.011 137.578C127.249 137.959 126.312 138.168 125.17 138.168V139.168V140.168C126.556 140.168 127.811 139.913 128.905 139.366L128.458 138.472ZM134.128 123.592L133.433 124.312L133.446 124.324L133.46 124.337L134.128 123.592ZM134.128 120.424L134.808 121.157L134.809 121.156L134.128 120.424ZM137.632 120.424L136.937 121.144L136.95 121.156L136.964 121.169L137.632 120.424ZM137.632 123.592L138.312 124.325L138.313 124.324L137.632 123.592ZM137.944 125.608H138.944V124.608H137.944V125.608ZM137.944 139V140H138.944V139H137.944ZM133.84 139H132.84V140H133.84V139ZM133.84 125.608V124.608H132.84V125.608H133.84ZM135.904 124.216V123.216C135.389 123.216 135.047 123.074 134.795 122.847L134.128 123.592L133.46 124.337C134.136 124.942 134.978 125.216 135.904 125.216V124.216ZM134.128 123.592L134.822 122.872C134.57 122.629 134.456 122.361 134.456 122.008H133.456H132.456C132.456 122.903 132.789 123.691 133.433 124.312L134.128 123.592ZM133.456 122.008H134.456C134.456 121.631 134.574 121.374 134.808 121.157L134.128 120.424L133.447 119.691C132.785 120.306 132.456 121.105 132.456 122.008H133.456ZM134.128 120.424L134.809 121.156C135.063 120.92 135.399 120.776 135.904 120.776V119.776V118.776C134.968 118.776 134.121 119.064 133.446 119.692L134.128 120.424ZM135.904 119.776V120.776C136.385 120.776 136.701 120.916 136.937 121.144L137.632 120.424L138.326 119.704C137.666 119.068 136.83 118.776 135.904 118.776V119.776ZM137.632 120.424L136.964 121.169C137.21 121.389 137.328 121.643 137.328 122.008H138.328H139.328C139.328 121.093 138.981 120.291 138.299 119.679L137.632 120.424ZM138.328 122.008H137.328C137.328 122.349 137.215 122.614 136.95 122.86L137.632 123.592L138.313 124.324C138.976 123.706 139.328 122.915 139.328 122.008H138.328ZM137.632 123.592L136.951 122.859C136.716 123.077 136.396 123.216 135.904 123.216V124.216V125.216C136.819 125.216 137.651 124.939 138.312 124.325L137.632 123.592ZM137.944 125.608H136.944V139H137.944H138.944V125.608H137.944ZM137.944 139V138H133.84V139V140H137.944V139ZM133.84 139H134.84V125.608H133.84H132.84V139H133.84ZM133.84 125.608V126.608H137.944V125.608V124.608H133.84V125.608ZM149.102 139L148.293 139.588L148.592 140H149.102V139ZM145.022 133.384L145.831 132.796L144.022 130.306V133.384H145.022ZM145.022 139V140H146.022V139H145.022ZM140.918 139H139.918V140H140.918V139ZM140.918 121.24V120.24H139.918V121.24H140.918ZM145.022 121.24H146.022V120.24H145.022V121.24ZM145.022 131.056H144.022V134.074L145.824 131.653L145.022 131.056ZM149.078 125.608V124.608H148.575L148.276 125.011L149.078 125.608ZM154.142 125.608L154.912 126.246L156.269 124.608H154.142V125.608ZM148.574 132.328L147.804 131.69L147.271 132.333L147.809 132.972L148.574 132.328ZM154.19 139V140H156.339L154.955 138.356L154.19 139ZM149.102 139L149.911 138.412L145.831 132.796L145.022 133.384L144.213 133.972L148.293 139.588L149.102 139ZM145.022 133.384H144.022V139H145.022H146.022V133.384H145.022ZM145.022 139V138H140.918V139V140H145.022V139ZM140.918 139H141.918V121.24H140.918H139.918V139H140.918ZM140.918 121.24V122.24H145.022V121.24V120.24H140.918V121.24ZM145.022 121.24H144.022V131.056H145.022H146.022V121.24H145.022ZM145.022 131.056L145.824 131.653L149.88 126.205L149.078 125.608L148.276 125.011L144.22 130.459L145.022 131.056ZM149.078 125.608V126.608H154.142V125.608V124.608H149.078V125.608ZM154.142 125.608L153.372 124.97L147.804 131.69L148.574 132.328L149.344 132.966L154.912 126.246L154.142 125.608ZM148.574 132.328L147.809 132.972L153.425 139.644L154.19 139L154.955 138.356L149.339 131.684L148.574 132.328ZM154.19 139V138H149.102V139V140H154.19V139ZM158.298 138.352L157.824 139.232L157.829 139.235L158.298 138.352ZM155.826 135.952L154.957 136.447L154.962 136.457L155.826 135.952ZM155.85 128.68L156.713 129.185L156.716 129.179L155.85 128.68ZM158.346 126.256L158.814 127.139L158.814 127.139L158.346 126.256ZM165.45 126.256L164.981 127.139L164.981 127.139L165.45 126.256ZM167.946 128.68L167.079 129.179L167.082 129.185L167.946 128.68ZM167.922 135.952L167.061 135.443L167.058 135.447L167.922 135.952ZM165.402 138.352L164.939 137.466L164.933 137.469L165.402 138.352ZM163.842 134.776L163.125 134.079L163.12 134.084L163.115 134.089L163.842 134.776ZM163.866 129.832L163.128 130.508L163.134 130.513L163.139 130.519L163.866 129.832ZM159.906 129.832L160.633 130.518L160.643 130.508L159.906 129.832ZM159.882 134.776L159.134 135.44L159.139 135.446L159.144 135.452L159.882 134.776ZM161.85 139.192V138.192C160.685 138.192 159.664 137.945 158.766 137.469L158.298 138.352L157.829 139.235C159.043 139.879 160.391 140.192 161.85 140.192V139.192ZM158.298 138.352L158.772 137.472C157.897 137 157.206 136.332 156.689 135.447L155.826 135.952L154.962 136.457C155.661 137.652 156.618 138.584 157.824 139.232L158.298 138.352ZM155.826 135.952L156.695 135.457C156.202 134.591 155.938 133.551 155.938 132.304H154.938H153.938C153.938 133.841 154.266 135.233 154.957 136.447L155.826 135.952ZM154.938 132.304H155.938C155.938 131.08 156.207 130.051 156.713 129.185L155.85 128.68L154.986 128.175C154.277 129.389 153.938 130.776 153.938 132.304H154.938ZM155.85 128.68L156.716 129.179C157.232 128.283 157.928 127.61 158.814 127.139L158.346 126.256L157.877 125.373C156.652 126.022 155.683 126.965 154.983 128.181L155.85 128.68ZM158.346 126.256L158.814 127.139C159.712 126.663 160.733 126.416 161.898 126.416V125.416V124.416C160.439 124.416 159.091 124.729 157.877 125.373L158.346 126.256ZM161.898 125.416V126.416C163.063 126.416 164.083 126.663 164.981 127.139L165.45 126.256L165.918 125.373C164.704 124.729 163.357 124.416 161.898 124.416V125.416ZM165.45 126.256L164.981 127.139C165.868 127.61 166.563 128.283 167.079 129.179L167.946 128.68L168.812 128.181C168.112 126.965 167.144 126.022 165.918 125.373L165.45 126.256ZM167.946 128.68L167.082 129.185C167.589 130.051 167.858 131.08 167.858 132.304H168.858H169.858C169.858 130.776 169.519 129.389 168.809 128.175L167.946 128.68ZM168.858 132.304H167.858C167.858 133.523 167.583 134.559 167.061 135.443L167.922 135.952L168.783 136.461C169.508 135.233 169.858 133.837 169.858 132.304H168.858ZM167.922 135.952L167.058 135.447C166.546 136.324 165.845 136.992 164.939 137.466L165.402 138.352L165.865 139.238C167.103 138.592 168.082 137.66 168.785 136.457L167.922 135.952ZM165.402 138.352L164.933 137.469C164.035 137.945 163.015 138.192 161.85 138.192V139.192V140.192C163.309 140.192 164.656 139.879 165.87 139.235L165.402 138.352ZM161.85 135.64V136.64C162.912 136.64 163.838 136.236 164.569 135.463L163.842 134.776L163.115 134.089C162.757 134.468 162.355 134.64 161.85 134.64V135.64ZM163.842 134.776L164.559 135.473C165.354 134.655 165.682 133.547 165.682 132.304H164.682H163.682C163.682 133.205 163.449 133.745 163.125 134.079L163.842 134.776ZM164.682 132.304H165.682C165.682 131.069 165.366 129.964 164.593 129.145L163.866 129.832L163.139 130.519C163.453 130.852 163.682 131.395 163.682 132.304H164.682ZM163.866 129.832L164.603 129.156C163.885 128.373 162.961 127.968 161.898 127.968V128.968V129.968C162.402 129.968 162.791 130.139 163.128 130.508L163.866 129.832ZM161.898 128.968V127.968C160.825 127.968 159.891 128.368 159.168 129.156L159.906 129.832L160.643 130.508C160.976 130.144 161.37 129.968 161.898 129.968V128.968ZM159.906 129.832L159.178 129.146C158.414 129.956 158.114 131.067 158.114 132.304H159.114H160.114C160.114 131.365 160.341 130.828 160.633 130.518L159.906 129.832ZM159.114 132.304H158.114C158.114 133.525 158.405 134.621 159.134 135.44L159.882 134.776L160.629 134.112C160.334 133.779 160.114 133.227 160.114 132.304H159.114ZM159.882 134.776L159.144 135.452C159.863 136.235 160.786 136.64 161.85 136.64V135.64V134.64C161.345 134.64 160.957 134.469 160.619 134.1L159.882 134.776Z" fill="#4F47E6" mask="url(#path-3-outside-1_7_16)"/>
<mask id="path-5-outside-2_7_16" maskUnits="userSpaceOnUse" x="82" y="152" width="35" height="14" fill="black">
<rect fill="white" x="82" y="152" width="35" height="14"/>
<path d="M83.714 163.23C85.4313 161.942 86.7567 160.789 87.69 159.772C88.6327 158.745 89.104 157.742 89.104 156.762C89.104 156.118 88.9407 155.605 88.614 155.222C88.2967 154.83 87.774 154.634 87.046 154.634C86.3367 154.634 85.786 154.858 85.394 155.306C85.0113 155.745 84.7967 156.333 84.75 157.07H83.798C83.854 156.034 84.1713 155.231 84.75 154.662C85.338 154.083 86.1033 153.794 87.046 153.794C87.9513 153.794 88.684 154.051 89.244 154.564C89.804 155.068 90.084 155.787 90.084 156.72C90.084 157.849 89.6127 158.946 88.67 160.01C87.7367 161.065 86.584 162.096 85.212 163.104H90.392V163.93H83.714V163.23ZM91.9217 158.89C91.9217 157.285 92.1691 156.039 92.6637 155.152C93.1584 154.265 94.0451 153.822 95.3237 153.822C96.6024 153.822 97.4891 154.265 97.9837 155.152C98.4784 156.039 98.7257 157.285 98.7257 158.89C98.7257 160.523 98.4784 161.788 97.9837 162.684C97.4891 163.58 96.6024 164.028 95.3237 164.028C94.0357 164.028 93.1444 163.58 92.6497 162.684C92.1644 161.788 91.9217 160.523 91.9217 158.89ZM97.7597 158.89C97.7597 158.022 97.6991 157.289 97.5777 156.692C97.4564 156.095 97.2184 155.614 96.8637 155.25C96.5091 154.886 95.9957 154.704 95.3237 154.704C94.6517 154.704 94.1384 154.886 93.7837 155.25C93.4291 155.614 93.1911 156.095 93.0697 156.692C92.9484 157.289 92.8877 158.022 92.8877 158.89C92.8877 159.786 92.9484 160.537 93.0697 161.144C93.1911 161.741 93.4291 162.222 93.7837 162.586C94.1384 162.95 94.6517 163.132 95.3237 163.132C95.9957 163.132 96.5091 162.95 96.8637 162.586C97.2184 162.222 97.4564 161.741 97.5777 161.144C97.6991 160.537 97.7597 159.786 97.7597 158.89ZM100.353 163.23C102.07 161.942 103.395 160.789 104.329 159.772C105.271 158.745 105.743 157.742 105.743 156.762C105.743 156.118 105.579 155.605 105.253 155.222C104.935 154.83 104.413 154.634 103.685 154.634C102.975 154.634 102.425 154.858 102.033 155.306C101.65 155.745 101.435 156.333 101.389 157.07H100.437C100.493 156.034 100.81 155.231 101.389 154.662C101.977 154.083 102.742 153.794 103.685 153.794C104.59 153.794 105.323 154.051 105.883 154.564C106.443 155.068 106.723 155.787 106.723 156.72C106.723 157.849 106.251 158.946 105.309 160.01C104.375 161.065 103.223 162.096 101.851 163.104H107.031V163.93H100.353V163.23ZM114.888 154.802H109.764V158.386C109.998 158.059 110.338 157.793 110.786 157.588C111.234 157.373 111.72 157.266 112.242 157.266C113.008 157.266 113.633 157.425 114.118 157.742C114.604 158.05 114.954 158.456 115.168 158.96C115.383 159.455 115.49 159.987 115.49 160.556C115.49 161.209 115.364 161.802 115.112 162.334C114.87 162.857 114.492 163.272 113.978 163.58C113.474 163.888 112.844 164.042 112.088 164.042C111.127 164.042 110.348 163.795 109.75 163.3C109.153 162.796 108.789 162.119 108.658 161.27H109.624C109.746 161.886 110.026 162.362 110.464 162.698C110.903 163.034 111.444 163.202 112.088 163.202C112.9 163.202 113.512 162.964 113.922 162.488C114.342 162.003 114.552 161.363 114.552 160.57C114.552 159.795 114.342 159.193 113.922 158.764C113.502 158.325 112.9 158.106 112.116 158.106C111.575 158.106 111.099 158.232 110.688 158.484C110.278 158.736 109.974 159.077 109.778 159.506H108.854V153.948H114.888V154.802Z"/>
</mask>
<path d="M83.714 163.23C85.4313 161.942 86.7567 160.789 87.69 159.772C88.6327 158.745 89.104 157.742 89.104 156.762C89.104 156.118 88.9407 155.605 88.614 155.222C88.2967 154.83 87.774 154.634 87.046 154.634C86.3367 154.634 85.786 154.858 85.394 155.306C85.0113 155.745 84.7967 156.333 84.75 157.07H83.798C83.854 156.034 84.1713 155.231 84.75 154.662C85.338 154.083 86.1033 153.794 87.046 153.794C87.9513 153.794 88.684 154.051 89.244 154.564C89.804 155.068 90.084 155.787 90.084 156.72C90.084 157.849 89.6127 158.946 88.67 160.01C87.7367 161.065 86.584 162.096 85.212 163.104H90.392V163.93H83.714V163.23ZM91.9217 158.89C91.9217 157.285 92.1691 156.039 92.6637 155.152C93.1584 154.265 94.0451 153.822 95.3237 153.822C96.6024 153.822 97.4891 154.265 97.9837 155.152C98.4784 156.039 98.7257 157.285 98.7257 158.89C98.7257 160.523 98.4784 161.788 97.9837 162.684C97.4891 163.58 96.6024 164.028 95.3237 164.028C94.0357 164.028 93.1444 163.58 92.6497 162.684C92.1644 161.788 91.9217 160.523 91.9217 158.89ZM97.7597 158.89C97.7597 158.022 97.6991 157.289 97.5777 156.692C97.4564 156.095 97.2184 155.614 96.8637 155.25C96.5091 154.886 95.9957 154.704 95.3237 154.704C94.6517 154.704 94.1384 154.886 93.7837 155.25C93.4291 155.614 93.1911 156.095 93.0697 156.692C92.9484 157.289 92.8877 158.022 92.8877 158.89C92.8877 159.786 92.9484 160.537 93.0697 161.144C93.1911 161.741 93.4291 162.222 93.7837 162.586C94.1384 162.95 94.6517 163.132 95.3237 163.132C95.9957 163.132 96.5091 162.95 96.8637 162.586C97.2184 162.222 97.4564 161.741 97.5777 161.144C97.6991 160.537 97.7597 159.786 97.7597 158.89ZM100.353 163.23C102.07 161.942 103.395 160.789 104.329 159.772C105.271 158.745 105.743 157.742 105.743 156.762C105.743 156.118 105.579 155.605 105.253 155.222C104.935 154.83 104.413 154.634 103.685 154.634C102.975 154.634 102.425 154.858 102.033 155.306C101.65 155.745 101.435 156.333 101.389 157.07H100.437C100.493 156.034 100.81 155.231 101.389 154.662C101.977 154.083 102.742 153.794 103.685 153.794C104.59 153.794 105.323 154.051 105.883 154.564C106.443 155.068 106.723 155.787 106.723 156.72C106.723 157.849 106.251 158.946 105.309 160.01C104.375 161.065 103.223 162.096 101.851 163.104H107.031V163.93H100.353V163.23ZM114.888 154.802H109.764V158.386C109.998 158.059 110.338 157.793 110.786 157.588C111.234 157.373 111.72 157.266 112.242 157.266C113.008 157.266 113.633 157.425 114.118 157.742C114.604 158.05 114.954 158.456 115.168 158.96C115.383 159.455 115.49 159.987 115.49 160.556C115.49 161.209 115.364 161.802 115.112 162.334C114.87 162.857 114.492 163.272 113.978 163.58C113.474 163.888 112.844 164.042 112.088 164.042C111.127 164.042 110.348 163.795 109.75 163.3C109.153 162.796 108.789 162.119 108.658 161.27H109.624C109.746 161.886 110.026 162.362 110.464 162.698C110.903 163.034 111.444 163.202 112.088 163.202C112.9 163.202 113.512 162.964 113.922 162.488C114.342 162.003 114.552 161.363 114.552 160.57C114.552 159.795 114.342 159.193 113.922 158.764C113.502 158.325 112.9 158.106 112.116 158.106C111.575 158.106 111.099 158.232 110.688 158.484C110.278 158.736 109.974 159.077 109.778 159.506H108.854V153.948H114.888V154.802Z" fill="#4F47E6"/>
<path d="M83.714 163.23L83.114 162.43L82.714 162.73V163.23H83.714ZM87.69 159.772L86.9534 159.096L86.9531 159.096L87.69 159.772ZM88.614 155.222L87.8368 155.851L87.845 155.861L87.8534 155.871L88.614 155.222ZM85.394 155.306L84.6414 154.647L84.6404 154.649L85.394 155.306ZM84.75 157.07V158.07H85.6887L85.748 157.133L84.75 157.07ZM83.798 157.07L82.7995 157.016L82.7425 158.07H83.798V157.07ZM84.75 154.662L85.4513 155.375L85.4514 155.375L84.75 154.662ZM89.244 154.564L88.5682 155.301L88.575 155.307L89.244 154.564ZM88.67 160.01L87.9215 159.347L87.9211 159.347L88.67 160.01ZM85.212 163.104L84.6199 162.298L82.1619 164.104H85.212V163.104ZM90.392 163.104H91.392V162.104H90.392V163.104ZM90.392 163.93V164.93H91.392V163.93H90.392ZM83.714 163.93H82.714V164.93H83.714V163.93ZM83.714 163.23L84.314 164.03C86.0568 162.723 87.4356 161.529 88.4269 160.448L87.69 159.772L86.9531 159.096C86.0777 160.05 84.8059 161.161 83.114 162.43L83.714 163.23ZM87.69 159.772L88.4266 160.448C89.4674 159.315 90.104 158.081 90.104 156.762H89.104H88.104C88.104 157.403 87.7979 158.176 86.9534 159.096L87.69 159.772ZM89.104 156.762H90.104C90.104 155.948 89.8949 155.182 89.3746 154.573L88.614 155.222L87.8534 155.871C87.9864 156.027 88.104 156.288 88.104 156.762H89.104ZM88.614 155.222L89.3912 154.593C88.8111 153.876 87.9368 153.634 87.046 153.634V154.634V155.634C87.6112 155.634 87.7822 155.784 87.8368 155.851L88.614 155.222ZM87.046 154.634V153.634C86.1089 153.634 85.2599 153.941 84.6414 154.647L85.394 155.306L86.1466 155.965C86.3121 155.775 86.5645 155.634 87.046 155.634V154.634ZM85.394 155.306L84.6404 154.649C84.0781 155.293 83.8088 156.11 83.752 157.007L84.75 157.07L85.748 157.133C85.7846 156.556 85.9445 156.196 86.1476 155.963L85.394 155.306ZM84.75 157.07V156.07H83.798V157.07V158.07H84.75V157.07ZM83.798 157.07L84.7965 157.124C84.843 156.265 85.0956 155.725 85.4513 155.375L84.75 154.662L84.0487 153.949C83.247 154.738 82.865 155.803 82.7995 157.016L83.798 157.07ZM84.75 154.662L85.4514 155.375C85.8253 155.007 86.3252 154.794 87.046 154.794V153.794V152.794C85.8815 152.794 84.8507 153.16 84.0486 153.949L84.75 154.662ZM87.046 153.794V154.794C87.7519 154.794 88.227 154.988 88.5683 155.301L89.244 154.564L89.9197 153.827C89.141 153.113 88.1507 152.794 87.046 152.794V153.794ZM89.244 154.564L88.575 155.307C88.8756 155.578 89.084 155.997 89.084 156.72H90.084H91.084C91.084 155.576 90.7324 154.558 89.913 153.821L89.244 154.564ZM90.084 156.72H89.084C89.084 157.547 88.7455 158.417 87.9215 159.347L88.67 160.01L89.4185 160.673C90.4798 159.475 91.084 158.152 91.084 156.72H90.084ZM88.67 160.01L87.9211 159.347C87.0434 160.339 85.9462 161.324 84.6199 162.298L85.212 163.104L85.8041 163.91C87.2218 162.868 88.43 161.79 89.4189 160.673L88.67 160.01ZM85.212 163.104V164.104H90.392V163.104V162.104H85.212V163.104ZM90.392 163.104H89.392V163.93H90.392H91.392V163.104H90.392ZM90.392 163.93V162.93H83.714V163.93V164.93H90.392V163.93ZM83.714 163.93H84.714V163.23H83.714H82.714V163.93H83.714ZM92.6637 155.152L93.537 155.639L93.537 155.639L92.6637 155.152ZM97.9837 155.152L98.857 154.665L98.857 154.665L97.9837 155.152ZM97.9837 162.684L98.8592 163.167L98.8592 163.167L97.9837 162.684ZM92.6497 162.684L91.7704 163.16L91.7743 163.167L92.6497 162.684ZM97.5777 156.692L96.5977 156.891L96.5977 156.891L97.5777 156.692ZM96.8637 155.25L96.1475 155.948L96.1475 155.948L96.8637 155.25ZM93.7837 155.25L94.4999 155.948L94.4999 155.948L93.7837 155.25ZM93.0697 156.692L92.0897 156.493L92.0897 156.493L93.0697 156.692ZM93.0697 161.144L92.0891 161.34L92.0897 161.343L93.0697 161.144ZM93.7837 162.586L94.4999 161.888L94.4999 161.888L93.7837 162.586ZM96.8637 162.586L96.1475 161.888L96.1475 161.888L96.8637 162.586ZM97.5777 161.144L98.5577 161.343L98.5583 161.34L97.5777 161.144ZM91.9217 158.89H92.9217C92.9217 157.366 93.1603 156.315 93.537 155.639L92.6637 155.152L91.7904 154.665C91.1778 155.763 90.9217 157.204 90.9217 158.89H91.9217ZM92.6637 155.152L93.537 155.639C93.8073 155.155 94.2976 154.822 95.3237 154.822V153.822V152.822C93.7925 152.822 92.5095 153.376 91.7904 154.665L92.6637 155.152ZM95.3237 153.822V154.822C96.3498 154.822 96.8401 155.155 97.1104 155.639L97.9837 155.152L98.857 154.665C98.138 153.376 96.855 152.822 95.3237 152.822V153.822ZM97.9837 155.152L97.1104 155.639C97.4872 156.315 97.7257 157.366 97.7257 158.89H98.7257H99.7257C99.7257 157.204 99.4696 155.763 98.857 154.665L97.9837 155.152ZM98.7257 158.89H97.7257C97.7257 160.445 97.4864 161.516 97.1083 162.201L97.9837 162.684L98.8592 163.167C99.4703 162.06 99.7257 160.602 99.7257 158.89H98.7257ZM97.9837 162.684L97.1083 162.201C96.8357 162.694 96.3449 163.028 95.3237 163.028V164.028V165.028C96.8598 165.028 98.1424 164.466 98.8592 163.167L97.9837 162.684ZM95.3237 164.028V163.028C94.2895 163.028 93.7963 162.692 93.5252 162.201L92.6497 162.684L91.7743 163.167C92.4925 164.468 93.7819 165.028 95.3237 165.028V164.028ZM92.6497 162.684L93.529 162.208C93.1568 161.521 92.9217 160.447 92.9217 158.89H91.9217H90.9217C90.9217 160.6 91.1719 162.055 91.7704 163.16L92.6497 162.684ZM97.7597 158.89H98.7597C98.7597 157.981 98.6966 157.177 98.5577 156.493L97.5777 156.692L96.5977 156.891C96.7015 157.402 96.7597 158.063 96.7597 158.89H97.7597ZM97.5777 156.692L98.5577 156.493C98.4059 155.745 98.0933 155.079 97.5799 154.552L96.8637 155.25L96.1475 155.948C96.3435 156.149 96.5069 156.444 96.5977 156.891L97.5777 156.692ZM96.8637 155.25L97.5799 154.552C96.9821 153.939 96.175 153.704 95.3237 153.704V154.704V155.704C95.8164 155.704 96.036 155.833 96.1475 155.948L96.8637 155.25ZM95.3237 154.704V153.704C94.4724 153.704 93.6653 153.939 93.0675 154.552L93.7837 155.25L94.4999 155.948C94.6115 155.833 94.831 155.704 95.3237 155.704V154.704ZM93.7837 155.25L93.0675 154.552C92.5542 155.079 92.2416 155.745 92.0897 156.493L93.0697 156.692L94.0497 156.891C94.1405 156.444 94.3039 156.149 94.4999 155.948L93.7837 155.25ZM93.0697 156.692L92.0897 156.493C91.9508 157.177 91.8877 157.981 91.8877 158.89H92.8877H93.8877C93.8877 158.063 93.946 157.402 94.0497 156.891L93.0697 156.692ZM92.8877 158.89H91.8877C91.8877 159.825 91.9506 160.647 92.0891 161.34L93.0697 161.144L94.0503 160.948C93.9462 160.427 93.8877 159.747 93.8877 158.89H92.8877ZM93.0697 161.144L92.0897 161.343C92.2416 162.091 92.5542 162.757 93.0675 163.284L93.7837 162.586L94.4999 161.888C94.3039 161.687 94.1405 161.392 94.0497 160.945L93.0697 161.144ZM93.7837 162.586L93.0675 163.284C93.6653 163.897 94.4724 164.132 95.3237 164.132V163.132V162.132C94.831 162.132 94.6115 162.003 94.4999 161.888L93.7837 162.586ZM95.3237 163.132V164.132C96.175 164.132 96.9821 163.897 97.5799 163.284L96.8637 162.586L96.1475 161.888C96.036 162.003 95.8164 162.132 95.3237 162.132V163.132ZM96.8637 162.586L97.5799 163.284C98.0933 162.757 98.4059 162.091 98.5577 161.343L97.5777 161.144L96.5977 160.945C96.5069 161.392 96.3435 161.687 96.1475 161.888L96.8637 162.586ZM97.5777 161.144L98.5583 161.34C98.6969 160.647 98.7597 159.825 98.7597 158.89H97.7597H96.7597C96.7597 159.747 96.7012 160.427 96.5971 160.948L97.5777 161.144ZM100.353 163.23L99.7527 162.43L99.3527 162.73V163.23H100.353ZM104.329 159.772L103.592 159.096L103.592 159.096L104.329 159.772ZM105.253 155.222L104.475 155.851L104.484 155.861L104.492 155.871L105.253 155.222ZM102.033 155.306L101.28 154.647L101.279 154.649L102.033 155.306ZM101.389 157.07V158.07H102.327L102.387 157.133L101.389 157.07ZM100.437 157.07L99.4381 157.016L99.3812 158.07H100.437V157.07ZM101.389 154.662L102.09 155.375L102.09 155.375L101.389 154.662ZM105.883 154.564L105.207 155.301L105.214 155.307L105.883 154.564ZM105.309 160.01L104.56 159.347L104.56 159.347L105.309 160.01ZM101.851 163.104L101.259 162.298L98.8006 164.104H101.851V163.104ZM107.031 163.104H108.031V162.104H107.031V163.104ZM107.031 163.93V164.93H108.031V163.93H107.031ZM100.353 163.93H99.3527V164.93H100.353V163.93ZM100.353 163.23L100.953 164.03C102.695 162.723 104.074 161.529 105.066 160.448L104.329 159.772L103.592 159.096C102.716 160.05 101.445 161.161 99.7527 162.43L100.353 163.23ZM104.329 159.772L105.065 160.448C106.106 159.315 106.743 158.081 106.743 156.762H105.743H104.743C104.743 157.403 104.437 158.176 103.592 159.096L104.329 159.772ZM105.743 156.762H106.743C106.743 155.948 106.534 155.182 106.013 154.573L105.253 155.222L104.492 155.871C104.625 156.027 104.743 156.288 104.743 156.762H105.743ZM105.253 155.222L106.03 154.593C105.45 153.876 104.575 153.634 103.685 153.634V154.634V155.634C104.25 155.634 104.421 155.784 104.475 155.851L105.253 155.222ZM103.685 154.634V153.634C102.748 153.634 101.899 153.941 101.28 154.647L102.033 155.306L102.785 155.965C102.951 155.775 103.203 155.634 103.685 155.634V154.634ZM102.033 155.306L101.279 154.649C100.717 155.293 100.447 156.11 100.391 157.007L101.389 157.07L102.387 157.133C102.423 156.556 102.583 156.196 102.786 155.963L102.033 155.306ZM101.389 157.07V156.07H100.437V157.07V158.07H101.389V157.07ZM100.437 157.07L101.435 157.124C101.482 156.265 101.734 155.725 102.09 155.375L101.389 154.662L100.687 153.949C99.8857 154.738 99.5037 155.803 99.4381 157.016L100.437 157.07ZM101.389 154.662L102.09 155.375C102.464 155.007 102.964 154.794 103.685 154.794V153.794V152.794C102.52 152.794 101.489 153.16 100.687 153.949L101.389 154.662ZM103.685 153.794V154.794C104.391 154.794 104.866 154.988 105.207 155.301L105.883 154.564L106.558 153.827C105.78 153.113 104.789 152.794 103.685 152.794V153.794ZM105.883 154.564L105.214 155.307C105.514 155.578 105.723 155.997 105.723 156.72H106.723H107.723C107.723 155.576 107.371 154.558 106.552 153.821L105.883 154.564ZM106.723 156.72H105.723C105.723 157.547 105.384 158.417 104.56 159.347L105.309 160.01L106.057 160.673C107.118 159.475 107.723 158.152 107.723 156.72H106.723ZM105.309 160.01L104.56 159.347C103.682 160.339 102.585 161.324 101.259 162.298L101.851 163.104L102.443 163.91C103.861 162.868 105.069 161.79 106.058 160.673L105.309 160.01ZM101.851 163.104V164.104H107.031V163.104V162.104H101.851V163.104ZM107.031 163.104H106.031V163.93H107.031H108.031V163.104H107.031ZM107.031 163.93V162.93H100.353V163.93V164.93H107.031V163.93ZM100.353 163.93H101.353V163.23H100.353H99.3527V163.93H100.353ZM114.888 154.802V155.802H115.888V154.802H114.888ZM109.764 154.802V153.802H108.764V154.802H109.764ZM109.764 158.386H108.764V161.506L110.578 158.967L109.764 158.386ZM110.786 157.588L111.203 158.497L111.211 158.494L111.219 158.49L110.786 157.588ZM114.118 157.742L113.571 158.579L113.583 158.586L114.118 157.742ZM115.168 158.96L114.248 159.352L114.251 159.358L115.168 158.96ZM115.112 162.334L114.209 161.906L114.205 161.913L115.112 162.334ZM113.978 163.58L113.464 162.722L113.457 162.727L113.978 163.58ZM109.75 163.3L109.105 164.064L109.113 164.07L109.75 163.3ZM108.658 161.27V160.27H107.493L107.67 161.422L108.658 161.27ZM109.624 161.27L110.606 161.077L110.447 160.27H109.624V161.27ZM110.464 162.698L109.856 163.492L109.856 163.492L110.464 162.698ZM113.922 162.488L113.166 161.834L113.165 161.835L113.922 162.488ZM113.922 158.764L113.2 159.456L113.208 159.463L113.922 158.764ZM109.778 159.506V160.506H110.421L110.688 159.921L109.778 159.506ZM108.854 159.506H107.854V160.506H108.854V159.506ZM108.854 153.948V152.948H107.854V153.948H108.854ZM114.888 153.948H115.888V152.948H114.888V153.948ZM114.888 154.802V153.802H109.764V154.802V155.802H114.888V154.802ZM109.764 154.802H108.764V158.386H109.764H110.764V154.802H109.764ZM109.764 158.386L110.578 158.967C110.689 158.812 110.878 158.646 111.203 158.497L110.786 157.588L110.37 156.679C109.799 156.941 109.306 157.307 108.951 157.805L109.764 158.386ZM110.786 157.588L111.219 158.49C111.525 158.343 111.861 158.266 112.242 158.266V157.266V156.266C111.578 156.266 110.944 156.404 110.354 156.686L110.786 157.588ZM112.242 157.266V158.266C112.874 158.266 113.293 158.397 113.571 158.579L114.118 157.742L114.666 156.905C113.973 156.452 113.141 156.266 112.242 156.266V157.266ZM114.118 157.742L113.583 158.586C113.906 158.792 114.117 159.044 114.248 159.352L115.168 158.96L116.088 158.568C115.79 157.868 115.302 157.308 114.654 156.898L114.118 157.742ZM115.168 158.96L114.251 159.358C114.408 159.72 114.49 160.116 114.49 160.556H115.49H116.49C116.49 159.857 116.358 159.189 116.086 158.562L115.168 158.96ZM115.49 160.556H114.49C114.49 161.078 114.391 161.522 114.209 161.906L115.112 162.334L116.016 162.762C116.338 162.082 116.49 161.341 116.49 160.556H115.49ZM115.112 162.334L114.205 161.913C114.05 162.247 113.813 162.513 113.464 162.723L113.978 163.58L114.493 164.437C115.171 164.031 115.689 163.467 116.019 162.755L115.112 162.334ZM113.978 163.58L113.457 162.727C113.148 162.915 112.711 163.042 112.088 163.042V164.042V165.042C112.978 165.042 113.801 164.861 114.5 164.433L113.978 163.58ZM112.088 164.042V163.042C111.302 163.042 110.766 162.843 110.388 162.53L109.75 163.3L109.113 164.07C109.929 164.746 110.952 165.042 112.088 165.042V164.042ZM109.75 163.3L110.395 162.536C110.002 162.203 109.745 161.754 109.647 161.118L108.658 161.27L107.67 161.422C107.833 162.485 108.305 163.389 109.106 164.064L109.75 163.3ZM108.658 161.27V162.27H109.624V161.27V160.27H108.658V161.27ZM109.624 161.27L108.643 161.463C108.805 162.283 109.198 162.988 109.856 163.492L110.464 162.698L111.072 161.904C110.854 161.736 110.687 161.489 110.606 161.077L109.624 161.27ZM110.464 162.698L109.856 163.492C110.497 163.983 111.262 164.202 112.088 164.202V163.202V162.202C111.626 162.202 111.309 162.085 111.072 161.904L110.464 162.698ZM112.088 163.202V164.202C113.1 164.202 114.027 163.898 114.68 163.141L113.922 162.488L113.165 161.835C112.997 162.03 112.7 162.202 112.088 162.202V163.202ZM113.922 162.488L114.679 163.142C115.29 162.435 115.552 161.545 115.552 160.57H114.552H113.552C113.552 161.182 113.394 161.57 113.166 161.834L113.922 162.488ZM114.552 160.57H115.552C115.552 159.613 115.289 158.731 114.637 158.065L113.922 158.764L113.208 159.463C113.396 159.656 113.552 159.978 113.552 160.57H114.552ZM113.922 158.764L114.645 158.072C113.985 157.384 113.09 157.106 112.116 157.106V158.106V159.106C112.711 159.106 113.02 159.267 113.2 159.456L113.922 158.764ZM112.116 158.106V157.106C111.414 157.106 110.752 157.272 110.165 157.632L110.688 158.484L111.211 159.336C111.446 159.192 111.736 159.106 112.116 159.106V158.106ZM110.688 158.484L110.165 157.632C109.589 157.985 109.149 158.477 108.869 159.091L109.778 159.506L110.688 159.921C110.8 159.677 110.966 159.487 111.211 159.336L110.688 158.484ZM109.778 159.506V158.506H108.854V159.506V160.506H109.778V159.506ZM108.854 159.506H109.854V153.948H108.854H107.854V159.506H108.854ZM108.854 153.948V154.948H114.888V153.948V152.948H108.854V153.948ZM114.888 153.948H113.888V154.802H114.888H115.888V153.948H114.888Z" fill="#4F47E6" mask="url(#path-5-outside-2_7_16)"/>
<path d="M63.4545 63.5804C64.5455 63.2143 66.3636 63.5804 66.3636 63.5804V99.4554L76.5455 101.652L88.9091 104.214C88.9091 104.214 98.7273 108.241 99.4545 108.607C100.182 108.973 100.182 108.973 100.909 108.607C101.636 108.241 108.545 105.313 108.545 105.313L134 99.4554V63.5804H136.545C136.545 63.5804 138 64.3125 138 65.4107V100.92C138 101.652 136.909 103.116 136.182 103.482C135.455 103.848 121.691 105.96 110.364 108.241L107.455 108.973C106.364 109.339 103.818 113 102.727 113L98.7273 113C94.7273 113 95.4545 110.071 92.9091 108.973C90.3636 107.875 71.4545 104.946 71.4545 104.946L65.6364 103.848C65.6364 103.848 62.3636 103.116 62.3636 100.188C62.3636 97.2589 62 65.4107 62 65.4107C62 65.4107 62.3636 63.9464 63.4545 63.5804Z" fill="#4F47E6"/>
<path d="M98.7273 113C94.7273 113 95.4545 110.071 92.9091 108.973C90.3636 107.875 71.4545 104.946 71.4545 104.946L65.6364 103.848C65.6364 103.848 62.3636 103.116 62.3636 100.188C62.3636 97.2589 62 65.4107 62 65.4107C62 65.4107 62.3636 63.9464 63.4545 63.5804C64.5455 63.2143 66.3636 63.5804 66.3636 63.5804V99.4554L76.5455 101.652L88.9091 104.214C88.9091 104.214 98.7273 108.241 99.4545 108.607C100.182 108.973 100.182 108.973 100.909 108.607C101.636 108.241 108.545 105.313 108.545 105.313L134 99.4554V63.5804H136.545C136.545 63.5804 138 64.3125 138 65.4107M98.7273 113C102.727 113 101.636 113 102.727 113M98.7273 113L102.727 113M102.727 113C103.818 113 106.364 109.339 107.455 108.973L110.364 108.241C121.691 105.96 135.455 103.848 136.182 103.482C136.909 103.116 138 101.652 138 100.92M138 100.92C138 100.187 138 66.5089 138 65.4107M138 100.92V65.4107" stroke="#4F47E6"/>
<path d="M98.3636 96.8929L98.7272 106.045C89.4306 100.795 83.6035 98.6122 71.4545 96.8929L69.6363 93.9643L69.2727 57.3572C76.1035 57.886 79.7953 58.4668 86 60.2857C84.151 69.4996 84.7155 74.2653 92.1818 81.1518V92.134C94.2882 94.8189 95.5026 96.2349 98.3636 96.8929Z" fill="#4F47E6"/>
<path d="M114.364 60.2857C116.508 70.3099 114.921 75.0508 108.182 81.1518L107.818 92.134C105.378 95.6475 103.984 96.9525 101.636 96.8929L102 106.045C110.872 100.519 116.623 98.764 127.818 97.2589L130.727 94.6965V57.7232C124.608 57.8532 121.052 58.3289 114.364 60.2857Z" fill="#4F47E6"/>
<path d="M96.5454 93.2322L105.636 91.0358L103.455 94.6965L98.3636 95.0626L96.5454 93.5983V93.2322Z" fill="#4F47E6"/>
<path d="M94.7272 82.6161H96.9091V77.4911L94 73.8304V72.7322L94.7272 72.3661L98.3636 76.3929L98.7272 82.6161H101.273L101.636 76.3929L105.636 72.7322H106.364V73.8304L103.091 77.125V82.9822H105.636V84.8125L94.7272 87.7411V82.6161Z" fill="#4F47E6"/>
<path d="M94.7272 89.5715L105.636 87.009V88.8393L94.7272 91.4018V89.5715Z" fill="#4F47E6"/>
<path d="M106.727 68.7054H110.364V72.7322H106.727V68.7054Z" fill="#4F47E6"/>
<path d="M110.727 60.6518V64.3125H106.727V61.0179V60.6518H110.727Z" fill="#4F47E6"/>
<path d="M102.364 64.3125H106.364V68.3393H102.364V64.3125Z" fill="#4F47E6"/>
<path d="M98 68.7054V72.7322H102V68.7054H98Z" fill="#4F47E6"/>
<path d="M94 64.6786H98V67.9732V68.3393H94V64.6786Z" fill="#4F47E6"/>
<path d="M90 68.7054H93.6363V72H90V69.0715V68.7054Z" fill="#4F47E6"/>
<path d="M89.6363 60.6518V64.6786H93.6363V61.0179V60.6518H89.6363Z" fill="#4F47E6"/>
<path d="M98.3636 56.625H102V60.2857H98.3636V56.625Z" fill="#4F47E6"/>
<path d="M87.0909 55.1607C97.7918 51.2885 103.508 51.6236 113.373 55.1607V46.375C105.716 40.3069 91.318 41.4999 87.0909 46.7411V55.1607Z" fill="#4F47E6"/>
<path d="M85.2727 47.8393V44.9107C97.2136 39.3742 103.647 39.5739 114.727 44.9107V47.8393L124.909 43.0804V42.3482L100.182 31H99.4545L75.0909 42.3482V43.0804L85.2727 47.8393Z" fill="#4F47E6"/>
<path d="M76.1818 43.8125V47.1071H75.4545V47.8393V48.5714V48.9375L75.8182 49.3036H76.1818V49.6696V50.0357L74.7273 54.0625H79.0909L77.6363 50.0357V49.3036L78 48.9375L78.3636 48.5714V47.8393V47.1071H77.6363V44.5446L76.1818 43.8125Z" fill="#4F47E6"/>
<path d="M106.727 68.7054H106.364H110.364M106.727 68.7054V72.7322H110.364V68.7054M106.727 68.7054H110.364M94 60.6518H93.6363M93.6363 60.6518H89.6363V64.6786H93.6363V61.0179V60.6518ZM106.364 60.6518H106.727M106.727 60.6518H110.727V64.3125H106.727V61.0179V60.6518ZM98.3636 96.8929L98.7272 106.045C89.4306 100.795 83.6035 98.6122 71.4545 96.8929L69.6363 93.9643L69.2727 57.3572C76.1035 57.886 79.7953 58.4668 86 60.2857C84.151 69.4996 84.7155 74.2653 92.1818 81.1518V92.134C94.2882 94.8189 95.5026 96.2349 98.3636 96.8929ZM96.5454 93.2322L105.636 91.0358L103.455 94.6965L98.3636 95.0626L96.5454 93.5983V93.2322ZM94.7272 89.5715L105.636 87.009V88.8393L94.7272 91.4018V89.5715ZM94.7272 82.6161H96.9091V77.4911L94 73.8304V72.7322L94.7272 72.3661L98.3636 76.3929L98.7272 82.6161H101.273L101.636 76.3929L105.636 72.7322H106.364V73.8304L103.091 77.125V82.9822H105.636V84.8125L94.7272 87.7411V82.6161ZM90 68.7054H93.6363V72H90V69.0715V68.7054ZM98 68.7054V72.7322H102V68.7054H98ZM102.364 64.3125H106.364V68.3393H102.364V64.3125ZM94 64.6786H98V67.9732V68.3393H94V64.6786ZM98.3636 56.625H102V60.2857H98.3636V56.625ZM87.0909 55.1607C97.7918 51.2885 103.508 51.6236 113.373 55.1607V46.375C105.716 40.3069 91.318 41.4999 87.0909 46.7411V55.1607ZM85.2727 47.8393V44.9107C97.2136 39.3742 103.647 39.5739 114.727 44.9107V47.8393L124.909 43.0804V42.3482L100.182 31H99.4545L75.0909 42.3482V43.0804L85.2727 47.8393ZM76.1818 43.8125V47.1071H75.4545V47.8393V48.5714V48.9375L75.8182 49.3036H76.1818V49.6696V50.0357L74.7273 54.0625H79.0909L77.6363 50.0357V49.3036L78 48.9375L78.3636 48.5714V47.8393V47.1071H77.6363V44.5446L76.1818 43.8125ZM114.364 60.2857C116.508 70.3099 114.921 75.0508 108.182 81.1518L107.818 92.134C105.378 95.6475 103.984 96.9525 101.636 96.8929L102 106.045C110.872 100.519 116.623 98.764 127.818 97.2589L130.727 94.6965V57.7232C124.608 57.8532 121.052 58.3289 114.364 60.2857Z" stroke="#4F47E6"/>
</svg>
