<svg width="106" height="113" viewBox="0 0 106 113" fill="none" xmlns="http://www.w3.org/2000/svg">
<path d="M2.5007 45C4.0007 44.5 6.5007 45 6.5007 45V94L20.5007 97L37.5007 100.5C37.5007 100.5 51.0007 106 52.0007 106.5C53.0007 107 53.0007 107 54.0007 106.5C55.0007 106 64.5007 102 64.5007 102L99.5007 94V45H103.001C103.001 45 105.001 46 105.001 47.5V96C105.001 97 103.501 99 102.501 99.5C101.501 100 82.5764 102.885 67.0007 106L63.0007 107C61.5007 107.5 58.0007 112.5 56.5007 112.5L51.0007 112.5C45.5007 112.5 46.5007 108.5 43.0007 107C39.5007 105.5 13.5007 101.5 13.5007 101.5L5.5007 100C5.5007 100 1.0007 99 1.0007 95C1.0007 91 0.500702 47.5 0.500702 47.5C0.500702 47.5 1.0007 45.5 2.5007 45Z" fill="white"/>
<path d="M51.0007 112.5C45.5007 112.5 46.5007 108.5 43.0007 107C39.5007 105.5 13.5007 101.5 13.5007 101.5L5.5007 100C5.5007 100 1.0007 99 1.0007 95C1.0007 91 0.500702 47.5 0.500702 47.5C0.500702 47.5 1.0007 45.5 2.5007 45C4.0007 44.5 6.5007 45 6.5007 45V94L20.5007 97L37.5007 100.5C37.5007 100.5 51.0007 106 52.0007 106.5C53.0007 107 53.0007 107 54.0007 106.5C55.0007 106 64.5007 102 64.5007 102L99.5007 94V45H103.001C103.001 45 105.001 46 105.001 47.5M51.0007 112.5C56.5007 112.5 55.0007 112.5 56.5007 112.5M51.0007 112.5L56.5007 112.5M56.5007 112.5C58.0007 112.5 61.5007 107.5 63.0007 107L67.0007 106C82.5764 102.885 101.501 100 102.501 99.5C103.501 99 105.001 97 105.001 96M105.001 96C105.001 95 105.001 49 105.001 47.5M105.001 96V47.5" stroke="white"/>
<path d="M50.5007 90.5001L51.0007 103C38.2178 95.8294 30.2056 92.8484 13.5007 90.5001L11.0007 86.5001L10.5007 36.5C19.893 37.2224 24.9693 38.0156 33.5007 40.5C30.9584 53.0848 31.7345 59.5941 42.0007 69V84.0001C44.8971 87.6673 46.5668 89.6013 50.5007 90.5001Z" fill="white"/>
<path d="M72.5007 40.5C75.4491 54.1916 73.267 60.667 64.0007 69L63.5007 84.0001C60.1449 88.799 58.2293 90.5815 55.0007 90.5001L55.5007 103C67.7004 95.4527 75.6071 93.0557 91.0007 91L95.0007 87.5001V37C86.5865 37.1776 81.6966 37.8273 72.5007 40.5Z" fill="white"/>
<path d="M48.0007 85.5001L60.5007 82.5001L57.5007 87.5001L50.5007 88.0001L48.0007 86.0001V85.5001Z" fill="white"/>
<path d="M45.5007 71H48.5007V64L44.5007 59V57.5L45.5007 57L50.5007 62.5L51.0007 71H54.5007L55.0007 62.5L60.5007 57.5H61.5007V59L57.0007 63.5V71.5H60.5007V74L45.5007 78V71Z" fill="white"/>
<path d="M45.5007 80.5L60.5007 77V79.5L45.5007 83.0001V80.5Z" fill="white"/>
<path d="M62.0007 52H67.0007V57.5H62.0007V52Z" fill="white"/>
<path d="M67.5007 41V46H62.0007V41.5V41H67.5007Z" fill="white"/>
<path d="M56.0007 46H61.5007V51.5H56.0007V46Z" fill="white"/>
<path d="M50.0007 52V57.5H55.5007V52H50.0007Z" fill="white"/>
<path d="M44.5007 46.5H50.0007V51V51.5H44.5007V46.5Z" fill="white"/>
<path d="M39.0007 52H44.0007V56.5H39.0007V52.5V52Z" fill="white"/>
<path d="M38.5007 41V46.5H44.0007V41.5V41H38.5007Z" fill="white"/>
<path d="M50.5007 35.5H55.5007V40.5H50.5007V35.5Z" fill="white"/>
<path d="M35.0007 33.5C49.7144 28.2112 57.5748 28.6688 71.1383 33.5V21.5C60.6109 13.2118 40.813 14.8414 35.0007 22V33.5Z" fill="white"/>
<path d="M32.5007 23.5V19.5C48.9194 11.9379 57.7655 12.2107 73.0007 19.5V23.5L87.0007 17V16L53.0007 0.5H52.0007L18.5007 16V17L32.5007 23.5Z" fill="white"/>
<path d="M20.0007 18V22.5H19.0007V23.5V24.5V25L19.5007 25.5H20.0007V26V26.5L18.0007 32H24.0007L22.0007 26.5V25.5L22.5007 25L23.0007 24.5V23.5V22.5H22.0007V19L20.0007 18Z" fill="white"/>
<path d="M62.0007 52H61.5007H67.0007M62.0007 52V57.5H67.0007V52M62.0007 52H67.0007M44.5007 41H44.0007M44.0007 41H38.5007V46.5H44.0007V41.5V41ZM61.5007 41H62.0007M62.0007 41H67.5007V46H62.0007V41.5V41ZM50.5007 90.5001L51.0007 103C38.2178 95.8294 30.2056 92.8484 13.5007 90.5001L11.0007 86.5001L10.5007 36.5C19.893 37.2224 24.9693 38.0156 33.5007 40.5C30.9584 53.0848 31.7345 59.5941 42.0007 69V84.0001C44.8971 87.6673 46.5668 89.6013 50.5007 90.5001ZM48.0007 85.5001L60.5007 82.5001L57.5007 87.5001L50.5007 88.0001L48.0007 86.0001V85.5001ZM45.5007 80.5L60.5007 77V79.5L45.5007 83.0001V80.5ZM45.5007 71H48.5007V64L44.5007 59V57.5L45.5007 57L50.5007 62.5L51.0007 71H54.5007L55.0007 62.5L60.5007 57.5H61.5007V59L57.0007 63.5V71.5H60.5007V74L45.5007 78V71ZM39.0007 52H44.0007V56.5H39.0007V52.5V52ZM50.0007 52V57.5H55.5007V52H50.0007ZM56.0007 46H61.5007V51.5H56.0007V46ZM44.5007 46.5H50.0007V51V51.5H44.5007V46.5ZM50.5007 35.5H55.5007V40.5H50.5007V35.5ZM35.0007 33.5C49.7144 28.2112 57.5748 28.6688 71.1383 33.5V21.5C60.6109 13.2118 40.813 14.8414 35.0007 22V33.5ZM32.5007 23.5V19.5C48.9194 11.9379 57.7655 12.2107 73.0007 19.5V23.5L87.0007 17V16L53.0007 0.5H52.0007L18.5007 16V17L32.5007 23.5ZM20.0007 18V22.5H19.0007V23.5V24.5V25L19.5007 25.5H20.0007V26V26.5L18.0007 32H24.0007L22.0007 26.5V25.5L22.5007 25L23.0007 24.5V23.5V22.5H22.0007V19L20.0007 18ZM72.5007 40.5C75.4491 54.1916 73.267 60.667 64.0007 69L63.5007 84.0001C60.1449 88.799 58.2293 90.5815 55.0007 90.5001L55.5007 103C67.7004 95.4527 75.6071 93.0557 91.0007 91L95.0007 87.5001V37C86.5865 37.1776 81.6966 37.8273 72.5007 40.5Z" stroke="white"/>
</svg>
